<?xml version="1.0" encoding="UTF-8"?>
<svg version="1.1" xmlns="http://www.w3.org/2000/svg" id="defense" width="33" height="25" viewBox="0 0 78 60">
<path d="M0 0 C0 18.81 0 37.62 0 57 C-11.17962466 57 -11.17962466 57 -16.66015625 56.52734375 C-30.32849069 55.43763841 -43.57457671 54.72492135 -57.28149414 55.89428711 C-64.29827201 56.39342782 -64.29827201 56.39342782 -67.3828125 54.6640625 C-69.90025676 50.51696833 -71.8556624 46.2112576 -73.75 41.75 C-74.16121094 40.83347656 -74.57242188 39.91695312 -74.99609375 38.97265625 C-77.65083835 32.79001185 -79.69785327 27.51233151 -77.20410156 20.88476562 C-76.1436707 18.65154036 -74.98015682 16.51909778 -73.75 14.375 C-73.35425781 13.65054687 -72.95851563 12.92609375 -72.55078125 12.1796875 C-71.76615051 10.75963448 -70.96219374 9.35006323 -70.13793945 7.95263672 C-69.11840356 6.20317351 -68.19116973 4.40068028 -67.27734375 2.59375 C-63.92709285 -1.22197315 -60.71422657 -1.35494817 -55.8125 -1.875 C-54.89702393 -1.98739014 -53.98154785 -2.09978027 -53.03833008 -2.21557617 C-36.35814558 -4.05024229 -16.18265888 -5.39421963 0 0 Z " fill="#76312C" transform="translate(78,3)"/>
<path d="M0 0 C0 18.81 0 37.62 0 57 C-11.17962466 57 -11.17962466 57 -16.66015625 56.52734375 C-30.32849069 55.43763841 -43.57457671 54.72492135 -57.28149414 55.89428711 C-64.29827201 56.39342782 -64.29827201 56.39342782 -67.3828125 54.6640625 C-69.90025676 50.51696833 -71.8556624 46.2112576 -73.75 41.75 C-74.16121094 40.83347656 -74.57242188 39.91695312 -74.99609375 38.97265625 C-77.65083835 32.79001185 -79.69785327 27.51233151 -77.20410156 20.88476562 C-76.1436707 18.65154036 -74.98015682 16.51909778 -73.75 14.375 C-73.35425781 13.65054687 -72.95851563 12.92609375 -72.55078125 12.1796875 C-71.76615051 10.75963448 -70.96219374 9.35006323 -70.13793945 7.95263672 C-69.11840356 6.20317351 -68.19116973 4.40068028 -67.27734375 2.59375 C-63.92709285 -1.22197315 -60.71422657 -1.35494817 -55.8125 -1.875 C-54.89702393 -1.98739014 -53.98154785 -2.09978027 -53.03833008 -2.21557617 C-36.35814558 -4.05024229 -16.18265888 -5.39421963 0 0 Z M-63 5 C-64.37669958 6.84956914 -64.37669958 6.84956914 -65.4375 9.0625 C-66.71584359 11.53581695 -67.98114669 13.96904143 -69.4296875 16.34765625 C-72.29617179 21.06844817 -73.84085908 24.3242012 -73 30 C-69.94589028 37.12625602 -66.46730763 44.06538473 -63 51 C-46.17 51 -29.34 51 -12 51 C-12.66 50.34 -13.32 49.68 -14 49 C-8.555 48.505 -8.555 48.505 -3 48 C-3 47.67 -3 47.34 -3 47 C-7.95 46.34 -12.9 45.68 -18 45 C-17.67 44.01 -17.34 43.02 -17 42 C-17.33266994 40.66650099 -17.66609738 39.33319088 -18 38 C-17.94046461 36.1841705 -17.81049379 34.36981107 -17.625 32.5625 C-17.48964844 31.17224609 -17.48964844 31.17224609 -17.3515625 29.75390625 C-17 27 -17 27 -16.4609375 24.40234375 C-15.87437815 21.75296996 -15.87437815 21.75296996 -16 18 C-15.505 16.515 -15.505 16.515 -15 15 C-15.99307821 13.66150329 -16.99357052 12.32848691 -18 11 C-18 9.68 -18 8.36 -18 7 C-15.69 7 -13.38 7 -11 7 C-11.99 6.67 -12.98 6.34 -14 6 C-14 5.34 -14 4.68 -14 4 C-11.69 4 -9.38 4 -7 4 C-7 3.67 -7 3.34 -7 3 C-14.59747163 1.13201342 -21.81904786 0.68438442 -29.625 0.75 C-31.33163818 0.75797607 -31.33163818 0.75797607 -33.07275391 0.76611328 C-48.65162714 0.32542496 -48.65162714 0.32542496 -63 5 Z " fill="#221C1C" transform="translate(78,3)"/>
<path d="M0 0 C0 0.33 0 0.66 0 1 C-4.62 1 -9.24 1 -14 1 C-14 1.66 -14 2.32 -14 3 C-10.7 3 -7.4 3 -4 3 C-5.98 3.99 -5.98 3.99 -8 5 C-8.33 5.33 -8.66 5.66 -9 6 C-12.09801118 5.99244388 -15.18263471 5.92230135 -18.27734375 5.78515625 C-22.76306515 5.68821532 -25.46255528 6.21061706 -29 9 C-32.88821183 13.54653341 -36.4122443 20.0008384 -37 26 C-36.25929468 28.60467806 -35.27470339 30.77748601 -33.98046875 33.15234375 C-33 35 -33 35 -33 37 C-24.83724382 40.17440518 -18.43302928 41.37321171 -10 38 C-8.5 39.375 -8.5 39.375 -7 41 C-7 41.66 -7 42.32 -7 43 C-5.35 43.33 -3.7 43.66 -2 44 C-2 44.33 -2 44.66 -2 45 C-7.42568791 45.24820164 -12.848042 45.42908715 -18.27807617 45.54931641 C-20.12241181 45.59944741 -21.96635305 45.66757774 -23.80932617 45.75439453 C-39.13225378 46.45785057 -39.13225378 46.45785057 -43.73999023 42.86132812 C-45.55781091 40.29033968 -46.82656722 37.91391234 -48 35 C-48.34675781 34.34112793 -48.69351563 33.68225586 -49.05078125 33.00341797 C-50.97036547 29.20758815 -51.43437143 26.18753586 -51 22 C-49.73648437 18.90615119 -48.14108266 16.03262394 -46.5 13.125 C-46.07074219 12.34125 -45.64148437 11.5575 -45.19921875 10.75 C-44.14384269 8.8268703 -43.07737013 6.91086748 -42 5 C-45.50148456 6.75074228 -46.54734722 10.70157465 -48.1875 14.125 C-48.56841797 14.87265625 -48.94933594 15.6203125 -49.34179688 16.390625 C-51.72216519 21.35008566 -52.53538526 24.51380632 -51 30 C-49.94715905 32.67797445 -48.72899156 35.24230393 -47.4375 37.8125 C-44 44.77495108 -44 44.77495108 -44 47 C-42.515 46.75443359 -42.515 46.75443359 -41 46.50390625 C-34.03936057 45.63382632 -27.00199124 45.8953959 -20 45.9375 C-18.54297029 45.94252424 -17.0859389 45.94708551 -15.62890625 45.95117188 C-12.0859023 45.96210612 -8.54296203 45.97932 -5 46 C-4.67 46.66 -4.34 47.32 -4 48 C-17.53 48.33 -31.06 48.66 -45 49 C-55.75675676 27.48648649 -55.75675676 27.48648649 -55 21 C-53.96153834 18.65702451 -52.75339374 16.52858085 -51.4140625 14.34375 C-49.95956878 12.0231399 -49.95956878 12.0231399 -48.8359375 9.53125 C-46.97560388 5.63340813 -45.52673281 2.74045859 -41.4375 1 C-28.67415033 -2.5414136 -13.00555825 -1.85793689 0 0 Z " fill="#8F3A35" transform="translate(60,5)"/>
<path d="M0 0 C3.85551046 2.02921603 6.39813201 4.96620515 8 9 C8.71578616 15.15390182 8.69861771 20.82193521 5 26 C2.18467081 29.15866202 0.66975625 30.72430816 -3.5078125 31.4140625 C-10.25845401 31.63055538 -10.25845401 31.63055538 -12.80078125 29.46875 C-13.19652344 28.9840625 -13.59226562 28.499375 -14 28 C-13.01 28 -12.02 28 -11 28 C-12.65 26.35 -14.3 24.7 -16 23 C-16 23.99 -16 24.98 -16 26 C-18.81865185 23.63966552 -19.5213945 21.94344801 -19.9375 18.3125 C-20.31954804 12.97162439 -19.1733143 9.29389092 -16 5 C-10.9134871 0.27680945 -6.85891802 -1.0374834 0 0 Z " fill="#5C5B5C" transform="translate(45,13)"/>
<path d="M0 0 C-0.99 0.495 -0.99 0.495 -2 1 C-2 13.54 -2 26.08 -2 39 C-12 38 -12 38 -14 37 C-15.62450295 30.20662403 -14.87687596 23.20646295 -13.4609375 16.4140625 C-12.87496646 13.75477566 -12.87496646 13.75477566 -13 10 C-12.67 9.01 -12.34 8.02 -12 7 C-12.495 6.360625 -12.99 5.72125 -13.5 5.0625 C-15 3 -15 3 -14.6875 0.75 C-14.460625 0.1725 -14.23375 -0.405 -14 -1 C-8.51053913 -2.12029814 -5.16569441 -1.79217969 0 0 Z " fill="#441C19" transform="translate(74,11)"/>
<path d="M0 0 C2.125 0.375 2.125 0.375 4 1 C3.42765625 1.17015625 2.8553125 1.3403125 2.265625 1.515625 C-1.22109951 3.80003071 -2.46744419 7.06605132 -4.25 10.75 C-4.79527344 11.80574219 -4.79527344 11.80574219 -5.3515625 12.8828125 C-7.41385503 17.05391544 -8.67839667 20.25768426 -8 25 C-6.83834268 28.11886946 -6.83834268 28.11886946 -5.1875 31.125 C-4.66542969 32.13820312 -4.14335937 33.15140625 -3.60546875 34.1953125 C-1.56113494 37.78991312 -1.56113494 37.78991312 1 41 C3.26700726 41.5706778 3.26700726 41.5706778 5.83520508 41.43823242 C6.81664993 41.43470261 7.79809479 41.43117279 8.8092804 41.42753601 C9.86866318 41.40375381 10.92804596 41.37997162 12.01953125 41.35546875 C13.65652229 41.34342155 13.65652229 41.34342155 15.32658386 41.33113098 C18.82237857 41.30208429 22.31708229 41.24585703 25.8125 41.1875 C29.29706597 41.14493197 32.78160255 41.10801064 36.26628113 41.07600403 C38.4355656 41.05439115 40.60479443 41.02577284 42.77388 40.98930359 C47.6432889 40.92548735 52.21341058 40.94761478 57 42 C57 42.33 57 42.66 57 43 C53.37 43.33 49.74 43.66 46 44 C46.66 44.66 47.32 45.32 48 46 C32.82 46 17.64 46 2 46 C2 45.67 2 45.34 2 45 C19.325 44.505 19.325 44.505 37 44 C24.13 44 11.26 44 -2 44 C-3.505625 41.03 -5.01125 38.06 -6.5625 35 C-7.04146729 34.08089844 -7.52043457 33.16179688 -8.01391602 32.21484375 C-10.66398299 26.80213853 -11.89438823 22.84096862 -10 17 C-8.87488612 14.25457431 -7.52983089 11.70126946 -6.0625 9.125 C-5.70220703 8.46242188 -5.34191406 7.79984375 -4.97070312 7.1171875 C-3.50056087 4.45306231 -2.16149654 2.16149654 0 0 Z " fill="#622724" transform="translate(18,8)"/>
<path d="M0 0 C-0.99 0.495 -0.99 0.495 -2 1 C-2.57678022 2.95816886 -3.06369964 4.9433228 -3.5 6.9375 C-4.78167939 12.78167939 -4.78167939 12.78167939 -7 15 C-7.14615845 17.85814307 -7.14615845 17.85814307 -6.41015625 19.9296875 C-5.90021103 22.50369672 -6.41502191 23.73467343 -7.4375 26.125 C-8.67174773 28.96778254 -8.67174773 28.96778254 -9 32 C-8.34 32.33 -7.68 32.66 -7 33 C-7 34.98 -7 36.96 -7 39 C-8.65 38.67 -10.3 38.34 -12 38 C-13.38530292 31.07348542 -12.90041048 24.31936041 -11.4609375 17.4140625 C-10.87496646 14.75477566 -10.87496646 14.75477566 -11 11 C-10.67 10.01 -10.34 9.02 -10 8 C-10.495 7.360625 -10.99 6.72125 -11.5 6.0625 C-13 4 -13 4 -12.6875 1.75 C-12.460625 1.1725 -12.23375 0.595 -12 0 C-7.6835078 -0.76173392 -4.25566547 -1.16063604 0 0 Z " fill="#572320" transform="translate(72,10)"/>
<path d="M0 0 C3.85551046 2.02921603 6.39813201 4.96620515 8 9 C8.71578616 15.15390182 8.69861771 20.82193521 5 26 C2.18467081 29.15866202 0.66975625 30.72430816 -3.5078125 31.4140625 C-10.25845401 31.63055538 -10.25845401 31.63055538 -12.80078125 29.46875 C-13.19652344 28.9840625 -13.59226562 28.499375 -14 28 C-12.68 28.33 -11.36 28.66 -10 29 C-10 26.03 -10 23.06 -10 20 C-9.34 20 -8.68 20 -8 20 C-8 23.3 -8 26.6 -8 30 C-1.42633307 28.38398881 -1.42633307 28.38398881 3.5 24.0625 C5.16442413 20.93424887 5.16442413 20.93424887 6 17 C2.7 17 -0.6 17 -4 17 C-4 16.34 -4 15.68 -4 15 C-0.7 15 2.6 15 6 15 C5.690625 13.741875 5.38125 12.48375 5.0625 11.1875 C4.88847656 10.47980469 4.71445312 9.77210937 4.53515625 9.04296875 C4.08989295 7.34316798 3.55566015 5.66698046 3 4 C0.07085835 2.82917122 0.07085835 2.82917122 -3 2 C-3.66 1.67 -4.32 1.34 -5 1 C-5.33 3.97 -5.66 6.94 -6 10 C-6.66 10 -7.32 10 -8 10 C-7.938125 11.423125 -7.938125 11.423125 -7.875 12.875 C-8 16 -8 16 -10 18 C-11 17 -11 17 -11.0625 13.4375 C-11.041875 12.303125 -11.02125 11.16875 -11 10 C-10.34 10 -9.68 10 -9 10 C-8.34 7.36 -7.68 4.72 -7 2 C-8.32 1.67 -9.64 1.34 -11 1 C-7.51096194 -0.74451903 -3.80658999 -0.57578672 0 0 Z " fill="#949498" transform="translate(45,13)"/>
<path d="M0 0 C6.95041086 -0.26618595 13.23514355 0.3879491 20 2 C20 2.33 20 2.66 20 3 C17.69 3 15.38 3 13 3 C13 3.66 13 4.32 13 5 C13.99 5.33 14.98 5.66 16 6 C12.7 6 9.4 6 6 6 C6.226875 7.0725 6.45375 8.145 6.6875 9.25 C7 13 7 13 5.5625 15.4375 C5.046875 15.953125 4.53125 16.46875 4 17 C3.67 16.01 3.34 15.02 3 14 C2.34 13.67 1.68 13.34 1 13 C-1 12 -1 12 -2 9 C-6.29 8.34 -10.58 7.68 -15 7 C-15 6.67 -15 6.34 -15 6 C-13.92878906 6.01160156 -12.85757813 6.02320313 -11.75390625 6.03515625 C-10.35677257 6.04453299 -8.95963701 6.05363331 -7.5625 6.0625 C-6.85544922 6.07087891 -6.14839844 6.07925781 -5.41992188 6.08789062 C-3.61306441 6.09653588 -1.80612397 6.05220011 0 6 C0.33 5.67 0.66 5.34 1 5 C-1.97 4.505 -1.97 4.505 -5 4 C-5 3.34 -5 2.68 -5 2 C-3.35 1.67 -1.7 1.34 0 1 C0 0.67 0 0.34 0 0 Z " fill="#843530" transform="translate(51,4)"/>
<path d="M0 0 C0.33 0 0.66 0 1 0 C0.77213542 1.5625 0.54427083 3.125 0.31640625 4.6875 C0.21199219 5.450625 0.10757812 6.21375 0 7 C-0.2578125 8.21945313 -0.515625 9.43890625 -0.78125 10.6953125 C-1.41878123 15.83127834 0.57629067 19.42577911 2.9375 23.875 C3.69946611 25.37094682 4.45872148 26.86827845 5.21484375 28.3671875 C5.72712524 29.34341064 5.72712524 29.34341064 6.24975586 30.33935547 C7 32 7 32 7 34 C8.485 33.75443359 8.485 33.75443359 10 33.50390625 C16.96063943 32.63382632 23.99800876 32.8953959 31 32.9375 C32.45702971 32.94252424 33.9140611 32.94708551 35.37109375 32.95117188 C38.9140977 32.96210612 42.45703797 32.97932 46 33 C46.33 33.66 46.66 34.32 47 35 C33.47 35.33 19.94 35.66 6 36 C-4.67605634 14.64788732 -4.67605634 14.64788732 -4 8 C-2.87266265 5.20616395 -1.51404136 2.60225859 0 0 Z " fill="#943C37" transform="translate(9,18)"/>
<path d="M0 0 C0.99 0 1.98 0 3 0 C3 14.52 3 29.04 3 44 C2.01 44 1.02 44 0 44 C-0.1687634 39.71356265 -0.32918968 35.42691518 -0.48217773 31.13989258 C-0.53527189 29.68407983 -0.59057186 28.22834567 -0.64819336 26.77270508 C-0.73102362 24.67025702 -0.80569592 22.56764622 -0.87890625 20.46484375 C-0.94960327 18.57173462 -0.94960327 18.57173462 -1.02172852 16.64038086 C-0.96397247 6.96397247 -0.96397247 6.96397247 1 5 C-0.32 4.67 -1.64 4.34 -3 4 C-3 3.34 -3 2.68 -3 2 C-2.01 2 -1.02 2 0 2 C0 1.34 0 0.68 0 0 Z " fill="#220E0C" transform="translate(72,6)"/>
<path d="M0 0 C1.33804688 0.04060547 1.33804688 0.04060547 2.703125 0.08203125 C3.37859375 0.11683594 4.0540625 0.15164062 4.75 0.1875 C4.21744565 4.71421196 2.53440128 7.6075555 -0.25 11.1875 C-3.28784773 13.34339193 -5.60459734 13.24755606 -9.25 13.1875 C-9.35824843 11.5848218 -9.43570645 9.98004252 -9.5 8.375 C-9.54640625 7.48167969 -9.5928125 6.58835937 -9.640625 5.66796875 C-9.25 3.1875 -9.25 3.1875 -7.5625 1.375 C-4.81753837 -0.03457489 -3.06650839 -0.12104638 0 0 Z " fill="#422E1F" transform="translate(46.25,29.8125)"/>
<path d="M0 0 C4.42670664 1.20728363 7.02627326 2.47558312 10 6 C11.35439668 8.70879335 11.06501451 11.00933268 11 14 C7.7 14 4.4 14 1 14 C-1.61895048 9.22426677 -0.83119431 5.15565119 0 0 Z " fill="#593E2A" transform="translate(40,14)"/>
<path d="M0 0 C0.99 0.33 1.98 0.66 3 1 C3 1.66 3 2.32 3 3 C9.93 3.495 9.93 3.495 17 4 C17 3.34 17 2.68 17 2 C18.98 1.34 20.96 0.68 23 0 C24.5 1.375 24.5 1.375 26 3 C26 3.66 26 4.32 26 5 C28.475 5.495 28.475 5.495 31 6 C31 6.33 31 6.66 31 7 C20.11 6.67 9.22 6.34 -2 6 C-2 5.34 -2 4.68 -2 4 C-2.66 3.67 -3.32 3.34 -4 3 C-3.34 3 -2.68 3 -2 3 C-2 2.34 -2 1.68 -2 1 C-1.34 0.67 -0.68 0.34 0 0 Z " fill="#A2423C" transform="translate(27,43)"/>
<path d="M0 0 C1.40066801 2.80133603 0.62265667 5.02106112 0.19140625 8.0234375 C-0.02187153 10.22585703 0.22268117 11.9271498 1 14 C1 12.35 1 10.7 1 9 C1.268125 9.556875 1.53625 10.11375 1.8125 10.6875 C3.80877514 14.57498316 5.73416375 18.04519577 9 21 C8.01 21 7.02 21 6 21 C9.73017006 22.86508503 13.93956676 22.56882373 18 22 C20.76262928 20.60650446 22.63943925 19.05266152 25 17 C23.66868381 22.56732224 23.66868381 22.56732224 20.875 24.375 C14.49136679 25.76274635 8.9720889 25.53206068 3.06640625 22.65625 C-1.22636638 19.21553999 -2.96197304 14.27776044 -4 9 C-3.54281975 5.56051604 -2.53547373 2.53547373 0 0 Z " fill="#533B31" transform="translate(26,21)"/>
<path d="M0 0 C2.6001894 1.59366447 3.82795624 2.58064333 5 5.4375 C5 8 5 8 3.125 10.125 C2.42375 10.74375 1.7225 11.3625 1 12 C0.67 12.99 0.34 13.98 0 15 C0.66 15 1.32 15 2 15 C1.67 15.99 1.34 16.98 1 18 C0.34 18 -0.32 18 -1 18 C-1 17.34 -1 16.68 -1 16 C-1.66 16 -2.32 16 -3 16 C-5.09678815 12.59271925 -5.4133256 9.96792579 -5 6 C-3.5469404 3.62226612 -1.96898532 1.96898532 0 0 Z " fill="#81342F" transform="translate(14,21)"/>
<path d="M0 0 C0.66 0.33 1.32 0.66 2 1 C0.73046875 2.46484375 -0.5390625 3.9296875 -1.80859375 5.39453125 C-3.20871231 7.10712971 -3.20871231 7.10712971 -4 10 C-2.68 10.33 -1.36 10.66 0 11 C0.33 12.98 0.66 14.96 1 17 C0.01 17.33 -0.98 17.66 -2 18 C-2.66 17.67 -3.32 17.34 -4 17 C-3.67 19.31 -3.34 21.62 -3 24 C-5.81865185 21.63966552 -6.5213945 19.94344801 -6.9375 16.3125 C-7.33366599 10.99921489 -6.06796341 7.31307843 -3 3 C-2.0246803 1.97591432 -1.03061247 0.96842033 0 0 Z " fill="#6F594B" transform="translate(32,15)"/>
<path d="M0 0 C9.9 0 19.8 0 30 0 C28.02 0.99 28.02 0.99 26 2 C25.67 2.33 25.34 2.66 25 3 C21.75768952 3.25185049 18.5009323 3.1852298 15.25 3.1875 C13.88875 3.20586914 13.88875 3.20586914 12.5 3.22460938 C7.90472496 3.23468673 4.16119506 3.21172763 0 1 C0 0.67 0 0.34 0 0 Z " fill="#AC4640" transform="translate(26,8)"/>
<path d="M0 0 C-0.27566715 3.95122922 -0.82714357 5.78042562 -3.3125 8.9375 C-6 11 -6 11 -8.3125 10.8125 C-8.869375 10.544375 -9.42625 10.27625 -10 10 C-9.69481346 6.43949035 -8.99971192 4.99964963 -6.6875 2.1875 C-4 0 -4 0 0 0 Z " fill="#714C31" transform="translate(38,15)"/>
<path d="M0 0 C4.84450133 1.52356056 6.59944882 3.47588431 9 8 C8.67 8.99 8.34 9.98 8 11 C7.1028125 9.576875 7.1028125 9.576875 6.1875 8.125 C4.18437474 4.86035803 4.18437474 4.86035803 1 3 C-3.69477792 2.23095067 -7.17047155 2.5545125 -11.375 4.8125 C-13.36763142 6.47302618 -15.2666284 8.07403156 -17 10 C-16.60228125 6.55310413 -15.04533933 3.81565607 -12.7890625 1.203125 C-9.03999723 -1.31808046 -4.29557043 -0.64186685 0 0 Z " fill="#5A302C" transform="translate(44,11)"/>
<path d="M0 0 C6.95041086 -0.26618595 13.23514355 0.3879491 20 2 C20 2.33 20 2.66 20 3 C17.69 3 15.38 3 13 3 C13 3.66 13 4.32 13 5 C7.06 4.67 1.12 4.34 -5 4 C-5 3.34 -5 2.68 -5 2 C-3.35 1.67 -1.7 1.34 0 1 C0 0.67 0 0.34 0 0 Z " fill="#752F2B" transform="translate(51,4)"/>
<path d="M0 0 C0.66 0 1.32 0 2 0 C2 3.3 2 6.6 2 10 C9.7742965 7.9046751 9.7742965 7.9046751 15 2 C15.33 2.99 15.66 3.98 16 5 C13.17324428 8.14499974 10.66365039 10.67581435 6.4140625 11.50390625 C-0.23891338 11.6502327 -0.23891338 11.6502327 -2.796875 9.46484375 C-3.39242188 8.73974609 -3.39242188 8.73974609 -4 8 C-2.68 8.33 -1.36 8.66 0 9 C0 6.03 0 3.06 0 0 Z " fill="#828488" transform="translate(35,33)"/>
<path d="M0 0 C3.3 0 6.6 0 10 0 C10 1.65 10 3.3 10 5 C3.73 4.67 -2.54 4.34 -9 4 C-9 3.67 -9 3.34 -9 3 C-3.555 2.505 -3.555 2.505 2 2 C1.34 1.34 0.68 0.68 0 0 Z " fill="#3E1A18" transform="translate(62,51)"/>
<path d="M0 0 C0.33 0 0.66 0 1 0 C1 5.61 1 11.22 1 17 C0.01 17 -0.98 17 -2 17 C-3.07119465 10.48597845 -3.01909053 6.03818105 0 0 Z " fill="#331413" transform="translate(71,33)"/>
<path d="M0 0 C1.33804688 0.04060547 1.33804688 0.04060547 2.703125 0.08203125 C3.37859375 0.11683594 4.0540625 0.15164062 4.75 0.1875 C4.75 0.5175 4.75 0.8475 4.75 1.1875 C2.44 1.1875 0.13 1.1875 -2.25 1.1875 C-2.559375 2.13625 -2.86875 3.085 -3.1875 4.0625 C-4.25 7.1875 -4.25 7.1875 -5.25 9.1875 C-6.24 9.1875 -7.23 9.1875 -8.25 9.1875 C-8.58 7.2075 -8.91 5.2275 -9.25 3.1875 C-6.10408067 0.38704377 -4.182936 -0.16511589 0 0 Z " fill="#5B412D" transform="translate(46.25,29.8125)"/>
<path d="M0 0 C0.66 2.97 1.32 5.94 2 9 C5.3 9.33 8.6 9.66 12 10 C12 10.33 12 10.66 12 11 C7.07872966 11.16682272 3.49656104 11.24828052 -1 9 C-1 8.34 -1 7.68 -1 7 C-1.66 6.67 -2.32 6.34 -3 6 C-3.66 5.01 -4.32 4.02 -5 3 C-2.25 0 -2.25 0 0 0 Z " fill="#883732" transform="translate(54,39)"/>
<path d="M0 0 C0.66 0.66 1.32 1.32 2 2 C1.34 2 0.68 2 0 2 C-0.03738281 2.91523438 -0.07476562 3.83046875 -0.11328125 4.7734375 C-0.17902344 5.96195313 -0.24476562 7.15046875 -0.3125 8.375 C-0.37050781 9.55835938 -0.42851563 10.74171875 -0.48828125 11.9609375 C-0.65714844 12.96382812 -0.82601562 13.96671875 -1 15 C-1.99 15.66 -2.98 16.32 -4 17 C-4 11.2174422 -3.84934129 6.54802386 -2 1 C-1.34 0.67 -0.68 0.34 0 0 Z " fill="#381614" transform="translate(72,10)"/>
<path d="M0 0 C2.0625 0.4375 2.0625 0.4375 4 1 C3.34 2.65 2.68 4.3 2 6 C1.3709375 5.79503906 0.741875 5.59007812 0.09375 5.37890625 C-5.30281819 3.68028765 -10.36659614 2.52161147 -16 2 C-16 1.67 -16 1.34 -16 1 C-14.92878906 1.01160156 -13.85757813 1.02320313 -12.75390625 1.03515625 C-11.35677257 1.04453299 -9.95963701 1.05363331 -8.5625 1.0625 C-7.85544922 1.07087891 -7.14839844 1.07925781 -6.41992188 1.08789062 C-4.61306441 1.09653588 -2.80612397 1.05220011 -1 1 C-0.67 0.67 -0.34 0.34 0 0 Z " fill="#923B36" transform="translate(52,9)"/>
<path d="M0 0 C1.99954746 -0.04254356 4.00041636 -0.04080783 6 0 C7 1 7 1 7.09765625 2.84765625 C7.06510417 4.8984375 7.03255208 6.94921875 7 9 C3.46352496 7.32482761 2.2088437 6.50719183 0.6875 2.8125 C0.460625 1.884375 0.23375 0.95625 0 0 Z " fill="#704E35" transform="translate(28,32)"/>
<path d="M0 0 C1 2 1 2 0.4375 5.6875 C-0.16502398 9.88991411 0.6048114 12.96945515 2 17 C2.34135927 18.33130115 2.67925956 19.66358148 3 21 C2.34 21 1.68 21 1 21 C-4.21404796 10.80967825 -4.21404796 10.80967825 -3.69921875 6.45703125 C-2.78450799 4.07704921 -1.83127834 1.83127834 0 0 Z " fill="#602E2A" transform="translate(26,21)"/>
<path d="M0 0 C2 1.625 2 1.625 4 4 C4.25 7.25 4.25 7.25 4 10 C1.36 10 -1.28 10 -4 10 C-4.33 9.34 -4.66 8.68 -5 8 C-3.68 7.67 -2.36 7.34 -1 7 C-1.33 6.34 -1.66 5.68 -2 5 C-1.01 5 -0.02 5 1 5 C0.67 3.35 0.34 1.7 0 0 Z " fill="#432D1C" transform="translate(47,18)"/>
<path d="M0 0 C0.33 0 0.66 0 1 0 C1 1.98 1 3.96 1 6 C0.34 6 -0.32 6 -1 6 C-0.95875 6.94875 -0.9175 7.8975 -0.875 8.875 C-1 12 -1 12 -3 14 C-4 13 -4 13 -4.0625 9.4375 C-4.041875 8.303125 -4.02125 7.16875 -4 6 C-3.34 6 -2.68 6 -2 6 C-1.34 4.02 -0.68 2.04 0 0 Z " fill="#A7A7AA" transform="translate(38,17)"/>
<path d="M0 0 C2.6934876 2.6934876 2.78924892 4.20648064 3 8 C2.21306886 10.80470328 1.15817004 13.31304552 0 16 C-0.66 16 -1.32 16 -2 16 C-1.34 10.72 -0.68 5.44 0 0 Z " fill="#53322E" transform="translate(53,22)"/>
<path d="M0 0 C0.66 0.33 1.32 0.66 2 1 C0.73046875 2.46484375 -0.5390625 3.9296875 -1.80859375 5.39453125 C-3.20871231 7.10712971 -3.20871231 7.10712971 -4 10 C-2.68 10.33 -1.36 10.66 0 11 C0 11.66 0 12.32 0 13 C-2.97 12.505 -2.97 12.505 -6 12 C-5.59791618 6.37082652 -3.71069698 3.99613521 0 0 Z " fill="#939194" transform="translate(32,15)"/>
<path d="M0 0 C0 3 0 3 -1 6 C-5.26754372 8.45707063 -9.2214118 8.16198604 -14 8 C-14 7.67 -14 7.34 -14 7 C-13.11248047 6.74476562 -13.11248047 6.74476562 -12.20703125 6.484375 C-7.36342355 4.99889662 -3.77495174 3.53140647 0 0 Z " fill="#582B26" transform="translate(50,38)"/>
<path d="M0 0 C3 2 3 2 4 5 C1.36 5 -1.28 5 -4 5 C-4 4.34 -4 3.68 -4 3 C-3.34 3 -2.68 3 -2 3 C-2 2.34 -2 1.68 -2 1 C-1.34 0.67 -0.68 0.34 0 0 Z " fill="#9E3F39" transform="translate(49,43)"/>
<path d="M0 0 C0.33 0 0.66 0 1 0 C0.45144652 4.571279 -0.41744803 8.67435795 -2 13 C-2.66 13 -3.32 13 -4 13 C-4.63934602 7.88523181 -2.40533547 4.32745622 0 0 Z " fill="#712E2A" transform="translate(9,18)"/>
<path d="M0 0 C1.32 0 2.64 0 4 0 C3.625 2.9375 3.625 2.9375 3 6 C2.01 6.495 2.01 6.495 1 7 C-1 6 -1 6 -1.75 4.0625 C-1.8325 3.381875 -1.915 2.70125 -2 2 C-1.34 1.34 -0.68 0.68 0 0 Z " fill="#65442B" transform="translate(34,15)"/>
<path d="M0 0 C2.97 0.33 5.94 0.66 9 1 C9 1.33 9 1.66 9 2 C6.69 2 4.38 2 2 2 C2 2.66 2 3.32 2 4 C-1.3 3.67 -4.6 3.34 -8 3 C-8 2.67 -8 2.34 -8 2 C-5.36 2 -2.72 2 0 2 C0 1.34 0 0.68 0 0 Z " fill="#562220" transform="translate(62,5)"/>
<path d="M0 0 C0.66 0.66 1.32 1.32 2 2 C-3.75 4 -3.75 4 -6 4 C-6.66 5.32 -7.32 6.64 -8 8 C-9 6 -9 6 -8.5 4 C-6.24930507 0.99907343 -3.55359122 0.78968694 0 0 Z " fill="#9C3F39" transform="translate(25,8)"/>
<path d="M0 0 C1.04449911 3.13349732 0.93423645 3.98968256 0 7 C-3 6 -3 6 -5 3 C-2.25 0 -2.25 0 0 0 Z " fill="#923B35" transform="translate(54,39)"/>
<path d="M0 0 C0.66 0 1.32 0 2 0 C1.979375 0.928125 1.95875 1.85625 1.9375 2.8125 C1.84230396 6.02286011 1.84230396 6.02286011 3 9 C2.34 9.66 1.68 10.32 1 11 C-1.03684712 6.92630576 -1.0257259 4.41062136 0 0 Z " fill="#702D29" transform="translate(58,37)"/>
<path d="M0 0 C1.32 0.33 2.64 0.66 4 1 C3.34 1 2.68 1 2 1 C2 1.66 2 2.32 2 3 C2.99 3 3.98 3 5 3 C5 3.66 5 4.32 5 5 C3.02 5 1.04 5 -1 5 C-1 2 -1 2 0 0 Z " fill="#694A33" transform="translate(41,17)"/>
<path d="M0 0 C1.32 0.66 2.64 1.32 4 2 C2.515 4.475 2.515 4.475 1 7 C-0.0625 5.1875 -0.0625 5.1875 -1 3 C-0.67 2.01 -0.34 1.02 0 0 Z " fill="#672926" transform="translate(59,16)"/>
<path d="M0 0 C0.99 0 1.98 0 3 0 C3 1.98 3 3.96 3 6 C2.01 6 1.02 6 0 6 C0 4.02 0 2.04 0 0 Z " fill="#200E0D" transform="translate(72,51)"/>
<path d="M0 0 C2.475 0.495 2.475 0.495 5 1 C5 2.32 5 3.64 5 5 C3.68 4.67 2.36 4.34 1 4 C0.67 2.68 0.34 1.36 0 0 Z " fill="#81593E" transform="translate(28,32)"/>
<path d="M0 0 C0.66 0 1.32 0 2 0 C2.33 1.32 2.66 2.64 3 4 C0.525 5.485 0.525 5.485 -2 7 C-1.34 4.69 -0.68 2.38 0 0 Z " fill="#752F2A" transform="translate(11,26)"/>
</svg>
