<?xml version="1.0" encoding="UTF-8" standalone="no"?><svg id="world-map" width="7680" height="4320" version="1.1" xmlns="http://www.w3.org/2000/svg" xmlns:xlink="http://www.w3.org/1999/xlink" xmlns:dc="http://purl.org/dc/elements/1.1/" xmlns:rdf="http://www.w3.org/1999/02/22-rdf-syntax-ns#" xmlns:svg="http://www.w3.org/2000/svg" background-color="#000000">
      
      <g id="viewbox" shape-rendering="geometricPrecision" style="cursor: default;"><g id="ocean" style="shape-rendering:geometricprecision;"><g id="oceanLayers" layers="-6,-4,-2" filter="" style="fill-rule:evenodd;shape-rendering:geometricprecision;"><rect id="oceanBase" x="0" y="0" width="7680" height="4320" fill="#c99f64"/><path d="M6127,0C6127,0,6127,0,6127,0C6127,0,6127,0,6127,0C6127,0,6127,0,6127,0C6127,0,6127,0,6127,0C6127,0,6127,0,6136,0C6145,0,6162.9,0,6171.9,0C6180.9,0,6180.9,0,6180.9,0C6180.9,0,6180.9,0,6191.4,13.7C6201.9,27.3,6223,54.7,6230.1,93.2C6237.3,131.7,6230.7,181.3,6242,229.2C6253.3,277,6282.7,323,6291.2,374.7C6299.7,426.3,6287.3,483.7,6296.7,517C6306,550.3,6337,559.7,6380.2,570.8C6423.3,582,6478.7,595,6517.3,619.3C6556,643.7,6578,679.3,6596.3,721.8C6614.7,764.3,6629.3,813.7,6629,863.8C6628.7,914,6613.3,965,6591.2,1013C6569,1061,6540,1106,6530.7,1145.5C6521.3,1185,6531.7,1219,6557.2,1220.3C6582.7,1221.7,6623.3,1190.3,6669.8,1186.7C6716.3,1183,6768.7,1207,6811.3,1235.5C6854,1264,6887,1297,6909,1340.2C6931,1383.3,6942,1436.7,6955.5,1491.3C6969,1546,6985,1602,7003.2,1650.7C7021.3,1699.3,7041.7,1740.7,7066.3,1779C7091,1817.3,7120,1852.7,7151.3,1890.3C7182.7,1928,7216.3,1968,7239.8,2010C7263.3,2052,7276.7,2096,7303,2133.7C7329.3,2171.3,7368.7,2202.7,7393.7,2244.2C7418.7,2285.7,7429.3,2337.3,7439.2,2384.5C7449,2431.7,7458,2474.3,7453,2516.7C7448,2559,7429,2601,7399.5,2642.5C7370,2684,7330,2725,7306,2769.8C7282,2814.7,7274,2863.3,7278.3,2913.7C7282.7,2964,7299.3,3016,7307,3063.2C7314.7,3110.3,7313.3,3152.7,7291.3,3187C7269.3,3221.3,7226.7,3247.7,7206,3287.8C7185.3,3328,7186.7,3382,7167.8,3424.3C7149,3466.7,7110,3497.3,7082.3,3527.2C7054.7,3557,7038.3,3586,7036.3,3623.3C7034.3,3660.7,7046.7,3706.3,7038.3,3755.8C7030,3805.3,7001,3858.7,6980.8,3908C6960.7,3957.3,6949.3,4002.7,6937.7,4049.7C6926,4096.7,6914,4145.3,6890.3,4186.7C6866.7,4228,6831.3,4262,6813.9,4283C6796.5,4304,6797,4312,6797.3,4316C6797.5,4320,6797.5,4320,6797.5,4320C6797.5,4320,6797.5,4320,6737.5,4320C6677.4,4320,6557.3,4320,6497.3,4320C6437.2,4320,6437.2,4320,6437.2,4320C6437.2,4320,6437.2,4320,6432.8,4312.7C6428.5,4305.3,6419.7,4290.7,6390.2,4279C6360.7,4267.3,6310.3,4258.7,6260.2,4259.5C6210,4260.3,6160,4270.7,6127.8,4282.3C6095.5,4294,6081.1,4307,6073.8,4313.5C6066.6,4320,6066.6,4320,6066.6,4320C6066.6,4320,6066.6,4320,6051.7,4320C6036.8,4320,6007,4320,5992.2,4320C5977.3,4320,5977.3,4320,5977.3,4320C5977.3,4320,5977.3,4320,5977.4,4317C5977.5,4314,5977.8,4308,5965.6,4308C5953.5,4308,5928.9,4314,5916.6,4317C5904.4,4320,5904.4,4320,5904.4,4320C5904.4,4320,5904.4,4320,5769.6,4320C5634.8,4320,5365.2,4320,5230.5,4320C5095.7,4320,5095.7,4320,5095.7,4320C5095.7,4320,5095.7,4320,5089.1,4298.8C5082.5,4277.7,5069.2,4235.3,5064.4,4190.3C5059.7,4145.3,5063.3,4097.7,5040,4063.8C5016.7,4030,4966.3,4010,4919.3,4000.7C4872.3,3991.3,4828.7,3992.7,4783.5,3986.5C4738.3,3980.3,4691.7,3966.7,4650.7,3941.2C4609.7,3915.7,4574.3,3878.3,4543,3839.2C4511.7,3800,4484.3,3759,4463.7,3759.2C4443,3759.3,4429,3800.7,4405,3836.7C4381,3872.7,4347,3903.3,4305,3907.5C4263,3911.7,4213,3889.3,4168.3,3864.8C4123.7,3840.3,4084.3,3813.7,4047.3,3782.7C4010.3,3751.7,3975.7,3716.3,3946,3677C3916.3,3637.7,3891.7,3594.3,3856.2,3589C3820.7,3583.7,3774.3,3616.3,3723.5,3637.3C3672.7,3658.3,3617.3,3667.7,3564,3663.7C3510.7,3659.7,3459.3,3642.3,3421.3,3613C3383.3,3583.7,3358.7,3542.3,3330.3,3520.2C3302,3498,3270,3495,3263.8,3514.5C3257.7,3534,3277.3,3576,3279.2,3622.3C3281,3668.7,3265,3719.3,3241.5,3767.5C3218,3815.7,3187,3861.3,3145.5,3890.3C3104,3919.3,3052,3931.7,3003,3930C2954,3928.3,2908,3912.7,2866.3,3881.5C2824.7,3850.3,2787.3,3803.7,2768,3756.5C2748.7,3709.3,2747.3,3661.7,2735.8,3633.3C2724.3,3605,2702.7,3596,2670,3585.3C2637.3,3574.7,2593.7,3562.3,2549,3544.7C2504.3,3527,2458.7,3504,2437,3464.8C2415.3,3425.7,2417.7,3370.3,2401.8,3327.5C2386,3284.7,2352,3254.3,2347.7,3260C2343.3,3265.7,2368.7,3307.3,2372.2,3353.5C2375.7,3399.7,2357.3,3450.3,2323.7,3486C2290,3521.7,2241,3542.3,2193,3546.5C2145,3550.7,2098,3538.3,2062.2,3507.5C2026.3,3476.7,2001.7,3427.3,1985.2,3385.8C1968.7,3344.3,1960.3,3310.7,1931.8,3288.2C1903.3,3265.7,1854.7,3254.3,1804.2,3239.5C1753.7,3224.7,1701.3,3206.3,1670,3172.5C1638.7,3138.7,1628.3,3089.3,1623.2,3038.3C1618,2987.3,1618,2934.7,1615.3,2888.8C1612.7,2843,1607.3,2804,1595.7,2795.5C1584,2787,1566,2809,1526.3,2831.2C1486.7,2853.3,1425.3,2875.7,1372.3,2881.5C1319.3,2887.3,1274.7,2876.7,1235.2,2888C1195.7,2899.3,1161.3,2932.7,1117,2957.2C1072.7,2981.7,1018.3,2997.3,974.5,3028C930.7,3058.7,897.3,3104.3,861.5,3134.8C825.7,3165.3,787.3,3180.7,744.5,3182.8C701.7,3185,654.3,3174,606.5,3150.8C558.7,3127.7,510.3,3092.3,481.3,3056.8C452.3,3021.3,442.7,2985.7,416.2,2956.3C389.7,2927,346.3,2904,304.7,2877.3C263,2850.7,223,2820.3,198.3,2778.2C173.7,2736,164.3,2682,179.8,2635.7C195.3,2589.3,235.7,2550.7,283.2,2524.5C330.7,2498.3,385.3,2484.7,427.2,2465C469,2445.3,498,2419.7,539,2399C580,2378.3,633,2362.7,666,2332.7C699,2302.7,712,2258.3,716.5,2214.3C721,2170.3,717,2126.7,711,2080.8C705,2035,697,1987,702.5,1937.7C708,1888.3,727,1837.7,757.2,1794C787.3,1750.3,828.7,1713.7,865.8,1691.5C903,1669.3,936,1661.7,957.5,1634.5C979,1607.3,989,1560.7,1019.7,1521C1050.3,1481.3,1101.7,1448.7,1153.8,1432C1206,1415.3,1259,1414.7,1294.5,1394.3C1330,1374,1348,1334,1347.2,1286.7C1346.3,1239.3,1326.7,1184.7,1323.3,1131.3C1320,1078,1333,1026,1359.7,988.8C1386.3,951.7,1426.7,929.3,1474,925.3C1521.3,921.3,1575.7,935.7,1609.7,969C1643.7,1002.3,1657.3,1054.7,1680.3,1081.8C1703.3,1109,1735.7,1111,1746.5,1089.8C1757.3,1068.7,1746.7,1024.3,1749,975.8C1751.3,927.3,1766.7,874.7,1790,828.5C1813.3,782.3,1844.7,742.7,1879.2,710.8C1913.7,679,1951.3,655,1987.5,625.7C2023.7,596.3,2058.3,561.7,2097.5,537.8C2136.7,514,2180.3,501,2221,482.3C2261.7,463.7,2299.3,439.3,2344.3,422.8C2389.3,406.3,2441.7,397.7,2484,410.5C2526.3,423.3,2558.7,457.7,2581,501C2603.3,544.3,2615.7,596.7,2605,642.5C2594.3,688.3,2560.7,727.7,2548.5,764.8C2536.3,802,2545.7,837,2554.7,881C2563.7,925,2572.3,978,2602.8,995.3C2633.3,1012.7,2685.7,994.3,2736.3,990C2787,985.7,2836,995.3,2875.5,988C2915,980.7,2945,956.3,2977,929C3009,901.7,3043,871.3,3084.5,854.2C3126,837,3175,833,3226.2,834.8C3277.3,836.7,3330.7,844.3,3381.5,853.5C3432.3,862.7,3480.7,873.3,3526.5,880.7C3572.3,888,3615.7,892,3662.8,899.5C3710,907,3761,918,3815.7,924.7C3870.3,931.3,3928.7,933.7,3980.5,936.2C4032.3,938.7,4077.7,941.3,4121.5,951.3C4165.3,961.3,4207.7,978.7,4251.3,991.2C4295,1003.7,4340,1011.3,4383,1007.7C4426,1004,4467,989,4511.2,977.3C4555.3,965.7,4602.7,957.3,4650,959C4697.3,960.7,4744.7,972.3,4790.7,986.8C4836.7,1001.3,4881.3,1018.7,4929.2,1027.2C4977,1035.7,5028,1035.3,5061.8,1014C5095.7,992.7,5112.3,950.3,5137.8,913.7C5163.3,877,5197.7,846,5223.3,805.3C5249,764.7,5266,714.3,5265.2,672.8C5264.3,631.3,5245.7,598.7,5233.2,554.2C5220.7,509.7,5214.3,453.3,5225.7,405.2C5237,357,5266,317,5308.5,289.7C5351,262.3,5407,247.7,5459.2,234C5511.3,220.3,5559.7,207.7,5608.5,201.7C5657.3,195.7,5706.7,196.3,5745.5,182C5784.3,167.7,5812.7,138.3,5834.9,105.5C5857,72.7,5873.1,36.3,5881.1,18.2C5889.1,0,5889.1,0,5889.1,0C5889.1,0,5889.1,0,5928.8,0C5968.4,0,6047.7,0,6087.4,0C6127,0,6127,0,6127,0M3597.2,1542.5C3553.3,1551,3503.7,1552,3453.3,1550.2C3403,1548.3,3352,1543.7,3331.5,1567.2C3311,1590.7,3321,1642.3,3347.7,1677.5C3374.3,1712.7,3417.7,1731.3,3449.8,1729C3482,1726.7,3503,1703.3,3539.7,1685.2C3576.3,1667,3628.7,1654,3669.8,1643.2C3711,1632.3,3741,1623.7,3747,1600.5C3753,1577.3,3735,1539.7,3707,1528.8C3679,1518,3641,1534,3597.2,1542.5" fill="#ecf2f9" fill-opacity="0.13"/><path d="M6127,0C6127,0,6127,0,6127,0C6127,0,6127,0,6128.2,3.8C6129.3,7.7,6131.7,15.3,6142.2,36C6152.7,56.7,6171.3,90.3,6175.3,124.8C6179.3,159.3,6168.7,194.7,6171.7,230.2C6174.7,265.7,6191.3,301.3,6207.8,330.3C6224.3,359.3,6240.7,381.7,6238.7,410.8C6236.7,440,6216.3,476,6209.3,508C6202.3,540,6208.7,568,6223.2,589.8C6237.7,611.7,6260.3,627.3,6288,630.2C6315.7,633,6348.3,623,6382.8,623.3C6417.3,623.7,6453.7,634.3,6475.5,656.7C6497.3,679,6504.7,713,6517.3,743.3C6530,773.7,6548,800.3,6561.7,826.7C6575.3,853,6584.7,879,6581,908.5C6577.3,938,6560.7,971,6540.2,1000.5C6519.7,1030,6495.3,1056,6478.3,1084.8C6461.3,1113.7,6451.7,1145.3,6450,1178C6448.3,1210.7,6454.7,1244.3,6459.5,1281.5C6464.3,1318.7,6467.7,1359.3,6484.2,1370.5C6500.7,1381.7,6530.3,1363.3,6555,1336.7C6579.7,1310,6599.3,1275,6625.5,1257C6651.7,1239,6684.3,1238,6718.8,1246.7C6753.3,1255.3,6789.7,1273.7,6812.3,1300.2C6835,1326.7,6844,1361.3,6857.5,1388.8C6871,1416.3,6889,1436.7,6899.7,1460.5C6910.3,1484.3,6913.7,1511.7,6919.2,1543.7C6924.7,1575.7,6932.3,1612.3,6943.8,1649C6955.3,1685.7,6970.7,1722.3,6990.8,1754.5C7011,1786.7,7036,1814.3,7057.3,1839.7C7078.7,1865,7096.3,1888,7110.7,1915.3C7125,1942.7,7136,1974.3,7149.3,2006.3C7162.7,2038.3,7178.3,2070.7,7195.2,2100.3C7212,2130,7230,2157,7250.5,2180C7271,2203,7294,2222,7314.2,2244C7334.3,2266,7351.7,2291,7364.5,2317.2C7377.3,2343.3,7385.7,2370.7,7393.3,2399.7C7401,2428.7,7408,2459.3,7401.8,2491.2C7395.7,2523,7376.3,2556,7356,2582.8C7335.7,2609.7,7314.3,2630.3,7287.5,2641.7C7260.7,2653,7228.3,2655,7210.2,2670.7C7192,2686.3,7188,2715.7,7194.7,2743.2C7201.3,2770.7,7218.7,2796.3,7221.8,2827.2C7225,2858,7214,2894,7214.3,2929.2C7214.7,2964.3,7226.3,2998.7,7240.8,3031.8C7255.3,3065,7272.7,3097,7268.2,3130C7263.7,3163,7237.3,3197,7207.3,3215.3C7177.3,3233.7,7143.7,3236.3,7132,3253C7120.3,3269.7,7130.7,3300.3,7130.8,3332.2C7131,3364,7121,3397,7103,3419.3C7085,3441.7,7059,3453.3,7032.5,3466C7006,3478.7,6979,3492.3,6965.3,3514C6951.7,3535.7,6951.3,3565.3,6960.3,3595.8C6969.3,3626.3,6987.7,3657.7,6997.3,3690.7C7007,3723.7,7008,3758.3,6996.8,3795.2C6985.7,3832,6962.3,3871,6938.7,3907.8C6915,3944.7,6891,3979.3,6865.8,4001.5C6840.7,4023.7,6814.3,4033.3,6790.3,4043.2C6766.3,4053,6744.7,4063,6750.2,4076.3C6755.7,4089.7,6788.3,4106.3,6801.8,4130.7C6815.3,4155,6809.7,4187,6797.8,4219.8C6786,4252.7,6768,4286.3,6759.1,4303.2C6750.1,4320,6750.1,4320,6750.1,4320C6750.1,4320,6750.1,4320,6714.9,4320C6679.8,4320,6609.5,4320,6574.3,4320C6539.2,4320,6539.2,4320,6539.2,4320C6539.2,4320,6539.2,4320,6528.5,4312.2C6517.8,4304.3,6496.4,4288.7,6472.5,4269.7C6448.7,4250.7,6422.3,4228.3,6391,4211.8C6359.7,4195.3,6323.3,4184.7,6292.2,4184.7C6261,4184.7,6235,4195.3,6202.2,4203.2C6169.3,4211,6129.7,4216,6095.5,4223.8C6061.3,4231.7,6032.7,4242.3,5998,4246.3C5963.3,4250.3,5922.7,4247.7,5884.8,4249.3C5847,4251,5812,4257,5785.3,4269.5C5758.6,4282,5740.3,4301,5731.1,4310.5C5721.9,4320,5721.9,4320,5721.9,4320C5721.9,4320,5721.9,4320,5632.9,4320C5543.8,4320,5365.8,4320,5276.8,4320C5187.7,4320,5187.7,4320,5187.7,4320C5187.7,4320,5187.7,4320,5176.8,4308.3C5165.8,4296.7,5143.9,4273.3,5137.6,4243C5131.3,4212.7,5140.7,4175.3,5141.7,4136.7C5142.7,4098,5135.3,4058,5122.7,4022.8C5110,3987.7,5092,3957.3,5062.2,3944.7C5032.3,3932,4990.7,3937,4950.7,3934.5C4910.7,3932,4872.3,3922,4836.3,3917.3C4800.3,3912.7,4766.7,3913.3,4729.8,3910.8C4693,3908.3,4653,3902.7,4625,3883.2C4597,3863.7,4581,3830.3,4569.8,3795.7C4558.7,3761,4552.3,3725,4529.7,3707C4507,3689,4468,3689,4441.7,3705.2C4415.3,3721.3,4401.7,3753.7,4382.2,3787.3C4362.7,3821,4337.3,3856,4306.2,3866.3C4275,3876.7,4238,3862.3,4207.2,3839.7C4176.3,3817,4151.7,3786,4124.3,3761.8C4097,3737.7,4067,3720.3,4040.8,3699.7C4014.7,3679,3992.3,3655,3975.7,3627.5C3959,3600,3948,3569,3929.5,3543.8C3911,3518.7,3885,3499.3,3856.7,3502C3828.3,3504.7,3797.7,3529.3,3765,3552.7C3732.3,3576,3697.7,3598,3661.3,3612.2C3625,3626.3,3587,3632.7,3549.7,3629.3C3512.3,3626,3475.7,3613,3448.3,3590.5C3421,3568,3403,3536,3386.5,3502.8C3370,3469.7,3355,3435.3,3329.7,3416.8C3304.3,3398.3,3268.7,3395.7,3240.2,3403.5C3211.7,3411.3,3190.3,3429.7,3177,3451.5C3163.7,3473.3,3158.3,3498.7,3167,3522.2C3175.7,3545.7,3198.3,3567.3,3214,3594.8C3229.7,3622.3,3238.3,3655.7,3233.2,3690C3228,3724.3,3209,3759.7,3183.2,3788.5C3157.3,3817.3,3124.7,3839.7,3092.3,3856.8C3060,3874,3028,3886,2998.3,3880.7C2968.7,3875.3,2941.3,3852.7,2912.8,3832.8C2884.3,3813,2854.7,3796,2831,3771.7C2807.3,3747.3,2789.7,3715.7,2789.5,3687.2C2789.3,3658.7,2806.7,3633.3,2830.8,3612.2C2855,3591,2886,3574,2882.7,3562.2C2879.3,3550.3,2841.7,3543.7,2808.5,3535.8C2775.3,3528,2746.7,3519,2715.2,3513C2683.7,3507,2649.3,3504,2615.5,3498.5C2581.7,3493,2548.3,3485,2525.5,3466.7C2502.7,3448.3,2490.3,3419.7,2489.2,3386.5C2488,3353.3,2498,3315.7,2494.5,3283.5C2491,3251.3,2474,3224.7,2448.5,3203.2C2423,3181.7,2389,3165.3,2358,3165.7C2327,3166,2299,3183,2285.3,3203.3C2271.7,3223.7,2272.3,3247.3,2282.7,3271.7C2293,3296,2313,3321,2316.7,3351.2C2320.3,3381.3,2307.7,3416.7,2289,3442.2C2270.3,3467.7,2245.7,3483.3,2214.7,3485.2C2183.7,3487,2146.3,3475,2116.5,3458.7C2086.7,3442.3,2064.3,3421.7,2058.2,3395.7C2052,3369.7,2062,3338.3,2079,3308.5C2096,3278.7,2120,3250.3,2117.7,3234.5C2115.3,3218.7,2086.7,3215.3,2059.7,3215.2C2032.7,3215,2007.3,3218,1974.2,3217.2C1941,3216.3,1900,3211.7,1866.5,3206.8C1833,3202,1807,3197,1776.8,3189.5C1746.7,3182,1712.3,3172,1695.8,3147.8C1679.3,3123.7,1680.7,3085.3,1683.2,3049.2C1685.7,3013,1689.3,2979,1692.3,2947.5C1695.3,2916,1697.7,2887,1714.8,2859.2C1732,2831.3,1764,2804.7,1764,2788.7C1764,2772.7,1732,2767.3,1704.7,2751.3C1677.3,2735.3,1654.7,2708.7,1636.5,2678.5C1618.3,2648.3,1604.7,2614.7,1595.8,2586.5C1587,2558.3,1583,2535.7,1571,2539.2C1559,2542.7,1539,2572.3,1529.5,2600.7C1520,2629,1521,2656,1512.2,2686.8C1503.3,2717.7,1484.7,2752.3,1459.5,2777.7C1434.3,2803,1402.7,2819,1371,2822.3C1339.3,2825.7,1307.7,2816.3,1274.2,2811.5C1240.7,2806.7,1205.3,2806.3,1177.3,2819.5C1149.3,2832.7,1128.7,2859.3,1105.5,2881C1082.3,2902.7,1056.7,2919.3,1026,2927.2C995.3,2935,959.7,2934,932.3,2954.8C905,2975.7,886,3018.3,863.3,3049.2C840.7,3080,814.3,3099,784,3112.8C753.7,3126.7,719.3,3135.3,682.5,3129.5C645.7,3123.7,606.3,3103.3,572.8,3078.5C539.3,3053.7,511.7,3024.3,505.3,2990.5C499,2956.7,514,2918.3,503.7,2895.7C493.3,2873,457.7,2866,419.7,2856.3C381.7,2846.7,341.3,2834.3,313.5,2816.3C285.7,2798.3,270.3,2774.7,253.2,2751.7C236,2728.7,217,2706.3,213.8,2680.5C210.7,2654.7,223.3,2625.3,245.8,2601C268.3,2576.7,300.7,2557.3,334.2,2546.7C367.7,2536,402.3,2534,436,2522.5C469.7,2511,502.3,2490,532.8,2472C563.3,2454,591.7,2439,625.2,2422.7C658.7,2406.3,697.3,2388.7,725.2,2365.8C753,2343,770,2315,771.8,2282.5C773.7,2250,760.3,2213,754.3,2175.8C748.3,2138.7,749.7,2101.3,746.8,2065.7C744,2030,737,1996,744.5,1960.3C752,1924.7,774,1887.3,798,1859.2C822,1831,848,1812,870.3,1795C892.7,1778,911.3,1763,937.5,1753.5C963.7,1744,997.3,1740,1014.8,1718.3C1032.3,1696.7,1033.7,1657.3,1042.2,1624.3C1050.7,1591.3,1066.3,1564.7,1088.2,1539.3C1110,1514,1138,1490,1168.7,1482.8C1199.3,1475.7,1232.7,1485.3,1265.2,1482.3C1297.7,1479.3,1329.3,1463.7,1359.2,1448.8C1389,1434,1417,1420,1426.3,1394C1435.7,1368,1426.3,1330,1417.3,1293.8C1408.3,1257.7,1399.7,1223.3,1391,1191.7C1382.3,1160,1373.7,1131,1371.2,1100.3C1368.7,1069.7,1372.3,1037.3,1392.7,1012.5C1413,987.7,1450,970.3,1485,970.3C1520,970.3,1553,987.7,1573,1012.8C1593,1038,1600,1071,1615.3,1098.7C1630.7,1126.3,1654.3,1148.7,1671.8,1167.8C1689.3,1187,1700.7,1203,1720.5,1205.2C1740.3,1207.3,1768.7,1195.7,1789.2,1171.5C1809.7,1147.3,1822.3,1110.7,1823,1074.8C1823.7,1039,1812.3,1004,1811.2,966.3C1810,928.7,1819,888.3,1834.2,854.8C1849.3,821.3,1870.7,794.7,1895,782.3C1919.3,770,1946.7,772,1968.8,759.7C1991,747.3,2008,720.7,2027.7,693.3C2047.3,666,2069.7,638,2088.7,611.3C2107.7,584.7,2123.3,559.3,2153,542.7C2182.7,526,2226.3,518,2259.5,506.3C2292.7,494.7,2315.3,479.3,2343.5,466.3C2371.7,453.3,2405.3,442.7,2439.3,442.8C2473.3,443,2507.7,454,2528,481.2C2548.3,508.3,2554.7,551.7,2555.7,586.8C2556.7,622,2552.3,649,2537.3,675.3C2522.3,701.7,2496.7,727.3,2474,755.7C2451.3,784,2431.7,815,2431.5,840C2431.3,865,2450.7,884,2470,904.5C2489.3,925,2508.7,947,2522.5,976.3C2536.3,1005.7,2544.7,1042.3,2566,1053.2C2587.3,1064,2621.7,1049,2659.7,1041.5C2697.7,1034,2739.3,1034,2775.5,1042C2811.7,1050,2842.3,1066,2863.8,1079.8C2885.3,1093.7,2897.7,1105.3,2913.5,1096.3C2929.3,1087.3,2948.7,1057.7,2973.8,1032.3C2999,1007,3030,986,3058.8,962.5C3087.7,939,3114.3,913,3145.2,899.5C3176,886,3211,885,3245.5,888.5C3280,892,3314,900,3352.5,906.2C3391,912.3,3434,916.7,3469.5,928.7C3505,940.7,3533,960.3,3562.3,965.7C3591.7,971,3622.3,962,3657.5,962.3C3692.7,962.7,3732.3,972.3,3767.5,982.5C3802.7,992.7,3833.3,1003.3,3864.2,1006.7C3895,1010,3926,1006,3955.8,1004C3985.7,1002,4014.3,1002,4050.5,1005C4086.7,1008,4130.3,1014,4169.8,1024.5C4209.3,1035,4244.7,1050,4283.8,1060.8C4323,1071.7,4366,1078.3,4403.8,1075.3C4441.7,1072.3,4474.3,1059.7,4509.2,1046.7C4544,1033.7,4581,1020.3,4618.7,1018.2C4656.3,1016,4694.7,1025,4722.3,1042.2C4750,1059.3,4767,1084.7,4793.7,1097.5C4820.3,1110.3,4856.7,1110.7,4892.5,1108.7C4928.3,1106.7,4963.7,1102.3,4999.5,1098C5035.3,1093.7,5071.7,1089.3,5097.2,1077.8C5122.7,1066.3,5137.3,1047.7,5152.8,1022.8C5168.3,998,5184.7,967,5202.2,938.5C5219.7,910,5238.3,884,5254.7,856.3C5271,828.7,5285,799.3,5305.7,773.7C5326.3,748,5353.7,726,5363.5,701.3C5373.3,676.7,5365.7,649.3,5348,622.8C5330.3,596.3,5302.7,570.7,5284.8,539.8C5267,509,5259,473,5261.8,441.8C5264.7,410.7,5278.3,384.3,5302.3,363.2C5326.3,342,5360.7,326,5397.7,312.7C5434.7,299.3,5474.3,288.7,5510.2,279C5546,269.3,5578,260.7,5602.8,269.5C5627.7,278.3,5645.3,304.7,5669.7,304.5C5694,304.3,5725,277.7,5759.5,263.5C5794,249.3,5832,247.7,5859,230.2C5886,212.7,5902,179.3,5910.5,148.5C5919,117.7,5920,89.3,5932.1,65C5944.1,40.7,5967.2,20.3,5978.8,10.2C5990.3,0,5990.3,0,5990.3,0C5990.3,0,5990.3,0,6013.1,0C6035.9,0,6081.4,0,6104.2,0C6127,0,6127,0,6127,0M2265.2,989.2C2253.7,1010.7,2239.3,1035.3,2229.7,1033.3C2220,1031.3,2215,1002.7,2226.5,981.2C2238,959.7,2266,945.3,2275.7,947.3C2285.3,949.3,2276.7,967.7,2265.2,989.2M2128.8,1284.3C2113.7,1318,2104.3,1352,2102.7,1381.7C2101,1411.3,2107,1436.7,2122.8,1434C2138.7,1431.3,2164.3,1400.7,2183,1368.2C2201.7,1335.7,2213.3,1301.3,2212.7,1270.3C2212,1239.3,2199,1211.7,2182,1214.5C2165,1217.3,2144,1250.7,2128.8,1284.3M3784,1476.5C3804.3,1503,3817.7,1540,3825.8,1574.8C3834,1609.7,3837,1642.3,3820.5,1660.8C3804,1679.3,3768,1683.7,3733.3,1692.8C3698.7,1702,3665.3,1716,3640.3,1732.2C3615.3,1748.3,3598.7,1766.7,3581.5,1790.8C3564.3,1815,3546.7,1845,3524.8,1847.8C3503,1850.7,3477,1826.3,3444.2,1809.5C3411.3,1792.7,3371.7,1783.3,3343,1762.8C3314.3,1742.3,3296.7,1710.7,3281,1679.7C3265.3,1648.7,3251.7,1618.3,3246.7,1586.5C3241.7,1554.7,3245.3,1521.3,3260.3,1498C3275.3,1474.7,3301.7,1461.3,3328.2,1464C3354.7,1466.7,3381.3,1485.3,3411.7,1497C3442,1508.7,3476,1513.3,3512.7,1515.2C3549.3,1517,3588.7,1516,3618,1504.8C3647.3,1493.7,3666.7,1472.3,3680.2,1456.2C3693.7,1440,3701.3,1429,3718.8,1431.5C3736.3,1434,3763.7,1450,3784,1476.5M1596.5,1616.3C1622.3,1613.3,1647.7,1600.7,1641.3,1595C1635,1589.3,1597,1590.7,1571.2,1593.7C1545.3,1596.7,1531.7,1601.3,1538,1607C1544.3,1612.7,1570.7,1619.3,1596.5,1616.3M4079.5,1789.5C4088.3,1810.7,4070.7,1843.3,4052.2,1841.2C4033.7,1839,4014.3,1802,4005.5,1780.8C3996.7,1759.7,3998.3,1754.3,4016.8,1756.5C4035.3,1758.7,4070.7,1768.3,4079.5,1789.5M4163.3,1985.2C4178.7,1993,4177.3,2013,4176.8,2045.2C4176.3,2077.3,4176.7,2121.7,4167.5,2155C4158.3,2188.3,4139.7,2210.7,4113.7,2215.7C4087.7,2220.7,4054.3,2208.3,4017.2,2199.7C3980,2191,3939,2186,3912,2168.2C3885,2150.3,3872,2119.7,3879.2,2104.8C3886.3,2090,3913.7,2091,3946,2081C3978.3,2071,4015.7,2050,4039.5,2032.3C4063.3,2014.7,4073.7,2000.3,4094.8,1991C4116,1981.7,4148,1977.3,4163.3,1985.2M4699.5,2453.8C4717,2485.3,4728,2524.7,4714.2,2543.2C4700.3,2561.7,4661.7,2559.3,4625.8,2560.2C4590,2561,4557,2565,4541.3,2548C4525.7,2531,4527.3,2493,4540.7,2465.3C4554,2437.7,4579,2420.3,4596.5,2407C4614,2393.7,4624,2384.3,4641,2391.5C4658,2398.7,4682,2422.3,4699.5,2453.8M4161,2570.2C4166.3,2606,4171.7,2646,4156.5,2659.8C4141.3,2673.7,4105.7,2661.3,4069,2657.2C4032.3,2653,3994.7,2657,3964.5,2669.8C3934.3,2682.7,3911.7,2704.3,3887.5,2707C3863.3,2709.7,3837.7,2693.3,3840.2,2680.8C3842.7,2668.3,3873.3,2659.7,3906.3,2651.5C3939.3,2643.3,3974.7,2635.7,3998.2,2615C4021.7,2594.3,4033.3,2560.7,4051.3,2537.8C4069.3,2515,4093.7,2503,4110.3,2493.7C4127,2484.3,4136,2477.7,4143.2,2490.2C4150.3,2502.7,4155.7,2534.3,4161,2570.2M3658.5,3010.3C3680.7,3040.3,3700.3,3065.7,3720,3095.8C3739.7,3126,3759.3,3161,3774.8,3195.2C3790.3,3229.3,3801.7,3262.7,3814.2,3292C3826.7,3321.3,3840.3,3346.7,3858.5,3345.8C3876.7,3345,3899.3,3318,3920,3288.2C3940.7,3258.3,3959.3,3225.7,3974.5,3195.5C3989.7,3165.3,4001.3,3137.7,3990.7,3117.8C3980,3098,3947,3086,3914.5,3079C3882,3072,3850,3070,3819.8,3055C3789.7,3040,3761.3,3012,3733.8,2985.5C3706.3,2959,3679.7,2934,3655.3,2921.8C3631,2909.7,3609,2910.3,3610.3,2928C3611.7,2945.7,3636.3,2980.3,3658.5,3010.3" fill="#ecf2f9" fill-opacity="0.13"/><path d="M6089.5,59.7C6107.7,67.7,6121.3,84.3,6123,102.8C6124.7,121.3,6114.3,141.7,6105.8,160.2C6097.3,178.7,6090.7,195.3,6091.2,211.5C6091.7,227.7,6099.3,243.3,6108.8,259.5C6118.3,275.7,6129.7,292.3,6141.5,313.5C6153.3,334.7,6165.7,360.3,6173.7,380.7C6181.7,401,6185.3,416,6181.3,434.8C6177.3,453.7,6165.7,476.3,6158.2,494.7C6150.7,513,6147.3,527,6139,543.2C6130.7,559.3,6117.3,577.7,6119.7,588.5C6122,599.3,6140,602.7,6153.3,617C6166.7,631.3,6175.3,656.7,6179.7,679.7C6184,702.7,6184,723.3,6183.5,744.3C6183,765.3,6182,786.7,6187.2,786.7C6192.3,786.7,6203.7,765.3,6220.7,751C6237.7,736.7,6260.3,729.3,6276.5,718.3C6292.7,707.3,6302.3,692.7,6319.3,684.2C6336.3,675.7,6360.7,673.3,6380.7,676C6400.7,678.7,6416.3,686.3,6425.5,699.7C6434.7,713,6437.3,732,6443,746.8C6448.7,761.7,6457.3,772.3,6468.5,783.3C6479.7,794.3,6493.3,805.7,6506.7,821.5C6520,837.3,6533,857.7,6532.2,876C6531.3,894.3,6516.7,910.7,6501.8,925.2C6487,939.7,6472,952.3,6452.8,960.5C6433.7,968.7,6410.3,972.3,6394.3,976C6378.3,979.7,6369.7,983.3,6375,991.3C6380.3,999.3,6399.7,1011.7,6411,1027.5C6422.3,1043.3,6425.7,1062.7,6418.3,1076.8C6411,1091,6393,1100,6381,1114.2C6369,1128.3,6363,1147.7,6364.7,1166C6366.3,1184.3,6375.7,1201.7,6379.8,1221C6384,1240.3,6383,1261.7,6388.7,1278C6394.3,1294.3,6406.7,1305.7,6412.2,1323.5C6417.7,1341.3,6416.3,1365.7,6416.3,1387.3C6416.3,1409,6417.7,1428,6416.3,1445.8C6415,1463.7,6411,1480.3,6415.5,1496.5C6420,1512.7,6433,1528.3,6451.8,1534.7C6470.7,1541,6495.3,1538,6512,1530.7C6528.7,1523.3,6537.3,1511.7,6540.2,1495.7C6543,1479.7,6540,1459.3,6547,1441.5C6554,1423.7,6571,1408.3,6585.5,1392.3C6600,1376.3,6612,1359.7,6621.7,1342.3C6631.3,1325,6638.7,1307,6651.8,1302.7C6665,1298.3,6684,1307.7,6705,1313C6726,1318.3,6749,1319.7,6760.8,1331.5C6772.7,1343.3,6773.3,1365.7,6777.8,1381C6782.3,1396.3,6790.7,1404.7,6803.2,1416.2C6815.7,1427.7,6832.3,1442.3,6839.5,1459.3C6846.7,1476.3,6844.3,1495.7,6848,1514.7C6851.7,1533.7,6861.3,1552.3,6861.7,1567.2C6862,1582,6853,1593,6854.7,1607.2C6856.3,1621.3,6868.7,1638.7,6877.8,1655.8C6887,1673,6893,1690,6898.3,1707.5C6903.7,1725,6908.3,1743,6914,1759.5C6919.7,1776,6926.3,1791,6937,1804.8C6947.7,1818.7,6962.3,1831.3,6978.7,1845.7C6995,1860,7013,1876,7026.3,1893.2C7039.7,1910.3,7048.3,1928.7,7059.8,1947.8C7071.3,1967,7085.7,1987,7097.5,2005.8C7109.3,2024.7,7118.7,2042.3,7123.8,2063.5C7129,2084.7,7130,2109.3,7135.8,2127.5C7141.7,2145.7,7152.3,2157.3,7161.5,2169.7C7170.7,2182,7178.3,2195,7185.7,2212.2C7193,2229.3,7200,2250.7,7205.7,2270.7C7211.3,2290.7,7215.7,2309.3,7228,2314.8C7240.3,2320.3,7260.7,2312.7,7277.7,2313.8C7294.7,2315,7308.3,2325,7315,2341.7C7321.7,2358.3,7321.3,2381.7,7325.5,2401.3C7329.7,2421,7338.3,2437,7347.3,2453.5C7356.3,2470,7365.7,2487,7365.7,2503.3C7365.7,2519.7,7356.3,2535.3,7341.2,2550.3C7326,2565.3,7305,2579.7,7285.7,2587.3C7266.3,2595,7248.7,2596,7230.3,2596.2C7212,2596.3,7193,2595.7,7176.8,2602.2C7160.7,2608.7,7147.3,2622.3,7134.3,2635.5C7121.3,2648.7,7108.7,2661.3,7100.8,2672.5C7093,2683.7,7090,2693.3,7098.3,2702.7C7106.7,2712,7126.3,2721,7140.8,2734.3C7155.3,2747.7,7164.7,2765.3,7170.8,2785.5C7177,2805.7,7180,2828.3,7178.8,2850.8C7177.7,2873.3,7172.3,2895.7,7170.5,2917.5C7168.7,2939.3,7170.3,2960.7,7169.5,2981.8C7168.7,3003,7165.3,3024,7171.8,3042.7C7178.3,3061.3,7194.7,3077.7,7202,3094.8C7209.3,3112,7207.7,3130,7198.8,3142C7190,3154,7174,3160,7155,3159.5C7136,3159,7114,3152,7096.3,3155.2C7078.7,3158.3,7065.3,3171.7,7054,3184.2C7042.7,3196.7,7033.3,3208.3,7034,3221.5C7034.7,3234.7,7045.3,3249.3,7055.7,3270.5C7066,3291.7,7076,3319.3,7076.2,3342.2C7076.3,3365,7066.7,3383,7053.7,3397.3C7040.7,3411.7,7024.3,3422.3,7006.2,3426.5C6988,3430.7,6968,3428.3,6946.3,3431.5C6924.7,3434.7,6901.3,3443.3,6880,3443C6858.7,3442.7,6839.3,3433.3,6836.2,3439C6833,3444.7,6846,3465.3,6848.3,3486.3C6850.7,3507.3,6842.3,3528.7,6840.2,3547.3C6838,3566,6842,3582,6853.2,3592.2C6864.3,3602.3,6882.7,3606.7,6898,3620.3C6913.3,3634,6925.7,3657,6933.7,3677.7C6941.7,3698.3,6945.3,3716.7,6944.2,3735.8C6943,3755,6937,3775,6929.5,3791.8C6922,3808.7,6913,3822.3,6904,3835.2C6895,3848,6886,3860,6881.8,3875.8C6877.7,3891.7,6878.3,3911.3,6872.3,3926.5C6866.3,3941.7,6853.7,3952.3,6840,3957.2C6826.3,3962,6811.7,3961,6797.5,3957.3C6783.3,3953.7,6769.7,3947.3,6758.5,3936.8C6747.3,3926.3,6738.7,3911.7,6725.2,3904.5C6711.7,3897.3,6693.3,3897.7,6683.8,3909.2C6674.3,3920.7,6673.7,3943.3,6673.8,3963.8C6674,3984.3,6675,4002.7,6673.5,4021C6672,4039.3,6668,4057.7,6672.7,4074.3C6677.3,4091,6690.7,4106,6707.7,4116.8C6724.7,4127.7,6745.3,4134.3,6749,4148.5C6752.7,4162.7,6739.3,4184.3,6728.8,4203C6718.3,4221.7,6710.7,4237.3,6702.3,4253.5C6694,4269.7,6685,4286.3,6671.8,4290.8C6658.7,4295.3,6641.3,4287.7,6624,4283.3C6606.7,4279,6589.3,4278,6572,4270.8C6554.7,4263.7,6537.3,4250.3,6524,4235C6510.7,4219.7,6501.3,4202.3,6487.2,4192.8C6473,4183.3,6454,4181.7,6435.8,4173.7C6417.7,4165.7,6400.3,4151.3,6383.8,4141.7C6367.3,4132,6351.7,4127,6334.2,4120C6316.7,4113,6297.3,4104,6281.3,4099.2C6265.3,4094.3,6252.7,4093.7,6241,4102.8C6229.3,4112,6218.7,4131,6202,4145C6185.3,4159,6162.7,4168,6142.7,4171.3C6122.7,4174.7,6105.3,4172.3,6086.5,4175.2C6067.7,4178,6047.3,4186,6026.3,4186.3C6005.3,4186.7,5983.7,4179.3,5964.8,4175.7C5946,4172,5930,4172,5914.8,4169.5C5899.7,4167,5885.3,4162,5871.2,4168.2C5857,4174.3,5843,4191.7,5825.5,4201.3C5808,4211,5787,4213,5767.7,4215.2C5748.3,4217.3,5730.7,4219.7,5710.3,4223.3C5690,4227,5667,4232,5659,4245C5651,4258,5658,4279,5656.1,4292.8C5654.3,4306.7,5643.6,4313.3,5638.2,4316.7C5632.9,4320,5632.9,4320,5632.9,4320C5632.9,4320,5632.9,4320,5612.9,4320C5593,4320,5553.2,4320,5533.3,4320C5513.4,4320,5513.4,4320,5513.4,4320C5513.4,4320,5513.4,4320,5506,4314.2C5498.6,4308.3,5483.8,4296.7,5464.4,4289C5445,4281.3,5421,4277.7,5402.7,4274.5C5384.3,4271.3,5371.7,4268.7,5357.2,4269.2C5342.7,4269.7,5326.3,4273.3,5308.8,4278.3C5291.3,4283.3,5272.7,4289.7,5254.8,4286C5237,4282.3,5220,4268.7,5208.2,4252.7C5196.3,4236.7,5189.7,4218.3,5190.8,4199.7C5192,4181,5201,4162,5204.8,4140.7C5208.7,4119.3,5207.3,4095.7,5199.5,4076.5C5191.7,4057.3,5177.3,4042.7,5177.7,4023.7C5178,4004.7,5193,3981.3,5204.8,3962.5C5216.7,3943.7,5225.3,3929.3,5233.3,3911.8C5241.3,3894.3,5248.7,3873.7,5246.2,3870.7C5243.7,3867.7,5231.3,3882.3,5217.5,3892.5C5203.7,3902.7,5188.3,3908.3,5172.7,3908.7C5157,3909,5141,3904,5119,3898.2C5097,3892.3,5069,3885.7,5048,3879.7C5027,3873.7,5013,3868.3,4996.2,3868.5C4979.3,3868.7,4959.7,3874.3,4940.3,3870.3C4921,3866.3,4902,3852.7,4884.8,3850.8C4867.7,3849,4852.3,3859,4835,3862.3C4817.7,3865.7,4798.3,3862.3,4778.7,3858.5C4759,3854.7,4739,3850.3,4716.2,3846.3C4693.3,3842.3,4667.7,3838.7,4648.8,3830.3C4630,3822,4618,3809,4613.2,3790.5C4608.3,3772,4610.7,3748,4618.8,3730.5C4627,3713,4641,3702,4639.2,3692.3C4637.3,3682.7,4619.7,3674.3,4604.3,3662.7C4589,3651,4576,3636,4559.2,3622.3C4542.3,3608.7,4521.7,3596.3,4503,3593.7C4484.3,3591,4467.7,3598,4455.5,3590C4443.3,3582,4435.7,3559,4432.2,3560.7C4428.7,3562.3,4429.3,3588.7,4421.8,3607.3C4414.3,3626,4398.7,3637,4382.2,3650C4365.7,3663,4348.3,3678,4336.2,3685.2C4324,3692.3,4317,3691.7,4317.5,3699.5C4318,3707.3,4326,3723.7,4325.3,3740.8C4324.7,3758,4315.3,3776,4301.2,3789.3C4287,3802.7,4268,3811.3,4252.8,3808C4237.7,3804.7,4226.3,3789.3,4213.5,3774.5C4200.7,3759.7,4186.3,3745.3,4173.7,3730.8C4161,3716.3,4150,3701.7,4132,3688.3C4114,3675,4089,3663,4070.5,3653.3C4052,3643.7,4040,3636.3,4032.2,3625.8C4024.3,3615.3,4020.7,3601.7,4019.3,3583.8C4018,3566,4019,3544,4009.7,3525.5C4000.3,3507,3980.7,3492,3963.2,3478.2C3945.7,3464.3,3930.3,3451.7,3925.5,3434.3C3920.7,3417,3926.3,3395,3935.3,3377.2C3944.3,3359.3,3956.7,3345.7,3966.2,3327.5C3975.7,3309.3,3982.3,3286.7,3994.5,3267.3C4006.7,3248,4024.3,3232,4037.2,3213.8C4050,3195.7,4058,3175.3,4071.3,3160.3C4084.7,3145.3,4103.3,3135.7,4121.3,3130C4139.3,3124.3,4156.7,3122.7,4169.7,3115.7C4182.7,3108.7,4191.3,3096.3,4187.3,3087.8C4183.3,3079.3,4166.7,3074.7,4145.3,3072.7C4124,3070.7,4098,3071.3,4076.7,3068.3C4055.3,3065.3,4038.7,3058.7,4020.8,3048.7C4003,3038.7,3984,3025.3,3965.8,3019.5C3947.7,3013.7,3930.3,3015.3,3909.3,3017.3C3888.3,3019.3,3863.7,3021.7,3843.2,3016.5C3822.7,3011.3,3806.3,2998.7,3797.5,2983.3C3788.7,2968,3787.3,2950,3776.2,2932.3C3765,2914.7,3744,2897.3,3734.7,2879.8C3725.3,2862.3,3727.7,2844.7,3739.2,2833C3750.7,2821.3,3771.3,2815.7,3790.7,2812.7C3810,2809.7,3828,2809.3,3846.5,2804.7C3865,2800,3884,2791,3900.2,2782.3C3916.3,2773.7,3929.7,2765.3,3944.7,2753.7C3959.7,2742,3976.3,2727,3991.5,2718.2C4006.7,2709.3,4020.3,2706.7,4037.8,2706.7C4055.3,2706.7,4076.7,2709.3,4094.3,2713C4112,2716.7,4126,2721.3,4143.3,2725.2C4160.7,2729,4181.3,2732,4196,2724.7C4210.7,2717.3,4219.3,2699.7,4223.3,2678C4227.3,2656.3,4226.7,2630.7,4230.7,2609.2C4234.7,2587.7,4243.3,2570.3,4242.8,2550.7C4242.3,2531,4232.7,2509,4228,2490.7C4223.3,2472.3,4223.7,2457.7,4229.7,2442.7C4235.7,2427.7,4247.3,2412.3,4261.5,2400.2C4275.7,2388,4292.3,2379,4313.2,2375C4334,2371,4359,2372,4375.7,2379.7C4392.3,2387.3,4400.7,2401.7,4413.8,2415.2C4427,2428.7,4445,2441.3,4458,2454.2C4471,2467,4479,2480,4481.2,2496C4483.3,2512,4479.7,2531,4477,2546.2C4474.3,2561.3,4472.7,2572.7,4478.3,2588.8C4484,2605,4497,2626,4511,2632.5C4525,2639,4540,2631,4558.3,2623C4576.7,2615,4598.3,2607,4619.7,2599.5C4641,2592,4662,2585,4680.3,2590.7C4698.7,2596.3,4714.3,2614.7,4733,2618.3C4751.7,2622,4773.3,2611,4787,2600.8C4800.7,2590.7,4806.3,2581.3,4806.8,2567.7C4807.3,2554,4802.7,2536,4793,2518.2C4783.3,2500.3,4768.7,2482.7,4759.3,2463.3C4750,2444,4746,2423,4738.3,2403C4730.7,2383,4719.3,2364,4712.2,2345.8C4705,2327.7,4702,2310.3,4697.2,2294.7C4692.3,2279,4685.7,2265,4677,2256C4668.3,2247,4657.7,2243,4649,2250.8C4640.3,2258.7,4633.7,2278.3,4623.5,2297.5C4613.3,2316.7,4599.7,2335.3,4584,2339.3C4568.3,2343.3,4550.7,2332.7,4531.5,2323.5C4512.3,2314.3,4491.7,2306.7,4474.8,2303C4458,2299.3,4445,2299.7,4430,2293.3C4415,2287,4398,2274,4384.2,2276.7C4370.3,2279.3,4359.7,2297.7,4343.7,2310.5C4327.7,2323.3,4306.3,2330.7,4285,2339.5C4263.7,2348.3,4242.3,2358.7,4223.3,2354.5C4204.3,2350.3,4187.7,2331.7,4176.3,2312.2C4165,2292.7,4159,2272.3,4163.2,2256.3C4167.3,2240.3,4181.7,2228.7,4193,2212.7C4204.3,2196.7,4212.7,2176.3,4220,2154.5C4227.3,2132.7,4233.7,2109.3,4239.7,2089.8C4245.7,2070.3,4251.3,2054.7,4260,2040.8C4268.7,2027,4280.3,2015,4284.2,1997.8C4288,1980.7,4284,1958.3,4278.7,1935.8C4273.3,1913.3,4266.7,1890.7,4257,1887.8C4247.3,1885,4234.7,1902,4217.3,1913.5C4200,1925,4178,1931,4160.2,1926.2C4142.3,1921.3,4128.7,1905.7,4127.3,1887.3C4126,1869,4137,1848,4151.5,1835.2C4166,1822.3,4184,1817.7,4201,1809C4218,1800.3,4234,1787.7,4250.3,1773.2C4266.7,1758.7,4283.3,1742.3,4293,1728.3C4302.7,1714.3,4305.3,1702.7,4297.7,1698C4290,1693.3,4272,1695.7,4257.3,1704.8C4242.7,1714,4231.3,1730,4213.7,1736.8C4196,1743.7,4172,1741.3,4149.5,1733.3C4127,1725.3,4106,1711.7,4084,1704.8C4062,1698,4039,1698,4019.5,1692.8C4000,1687.7,3984,1677.3,3966.5,1668.8C3949,1660.3,3930,1653.7,3918.2,1642.8C3906.3,1632,3901.7,1617,3902.5,1600C3903.3,1583,3909.7,1564,3912.3,1550.2C3915,1536.3,3914,1527.7,3904.7,1519C3895.3,1510.3,3877.7,1501.7,3865.8,1487.2C3854,1472.7,3848,1452.3,3842.3,1430.8C3836.7,1409.3,3831.3,1386.7,3822,1379.8C3812.7,1373,3799.3,1382,3783.8,1383.7C3768.3,1385.3,3750.7,1379.7,3733,1380.3C3715.3,1381,3697.7,1388,3679.7,1388C3661.7,1388,3643.3,1381,3635.3,1386.8C3627.3,1392.7,3629.7,1411.3,3619.5,1426.8C3609.3,1442.3,3586.7,1454.7,3564.7,1457.2C3542.7,1459.7,3521.3,1452.3,3498.3,1450.5C3475.3,1448.7,3450.7,1452.3,3431.7,1447.8C3412.7,1443.3,3399.3,1430.7,3379.8,1419.3C3360.3,1408,3334.7,1398,3316.7,1387.2C3298.7,1376.3,3288.3,1364.7,3277,1361.3C3265.7,1358,3253.3,1363,3242.7,1373.7C3232,1384.3,3223,1400.7,3214.7,1421.3C3206.3,1442,3198.7,1467,3191,1488.8C3183.3,1510.7,3175.7,1529.3,3177,1545.3C3178.3,1561.3,3188.7,1574.7,3189.5,1587.5C3190.3,1600.3,3181.7,1612.7,3177.7,1632C3173.7,1651.3,3174.3,1677.7,3180.8,1694.5C3187.3,1711.3,3199.7,1718.7,3203.7,1731.5C3207.7,1744.3,3203.3,1762.7,3203.5,1780C3203.7,1797.3,3208.3,1813.7,3224.5,1817C3240.7,1820.3,3268.3,1810.7,3289,1809.8C3309.7,1809,3323.3,1817,3341.5,1821.7C3359.7,1826.3,3382.3,1827.7,3394.7,1837.3C3407,1847,3409,1865,3409,1883.7C3409,1902.3,3407,1921.7,3396.5,1933.5C3386,1945.3,3367,1949.7,3359.7,1957.5C3352.3,1965.3,3356.7,1976.7,3368.8,1978.8C3381,1981,3401,1974,3420,1961.5C3439,1949,3457,1931,3474.5,1923.8C3492,1916.7,3509,1920.3,3527.3,1926.7C3545.7,1933,3565.3,1942,3582.5,1953C3599.7,1964,3614.3,1977,3633.2,1982C3652,1987,3675,1984,3692.3,1990C3709.7,1996,3721.3,2011,3733.3,2025.5C3745.3,2040,3757.7,2054,3769.3,2068.2C3781,2082.3,3792,2096.7,3800.5,2116.8C3809,2137,3815,2163,3821.3,2185.2C3827.7,2207.3,3834.3,2225.7,3850.3,2238.3C3866.3,2251,3891.7,2258,3913,2257.8C3934.3,2257.7,3951.7,2250.3,3969.5,2249.7C3987.3,2249,4005.7,2255,4024,2263.3C4042.3,2271.7,4060.7,2282.3,4081.7,2293.7C4102.7,2305,4126.3,2317,4135.8,2333.7C4145.3,2350.3,4140.7,2371.7,4134,2391.7C4127.3,2411.7,4118.7,2430.3,4109.2,2444.3C4099.7,2458.3,4089.3,2467.7,4075.3,2472.2C4061.3,2476.7,4043.7,2476.3,4025.3,2483.2C4007,2490,3988,2504,3977.7,2521.8C3967.3,2539.7,3965.7,2561.3,3953.3,2575.3C3941,2589.3,3918,2595.7,3896.3,2599.2C3874.7,2602.7,3854.3,2603.3,3835.2,2607.2C3816,2611,3798,2618,3782,2626C3766,2634,3752,2643,3748.7,2654.5C3745.3,2666,3752.7,2680,3757.7,2697.3C3762.7,2714.7,3765.3,2735.3,3760.8,2754C3756.3,2772.7,3744.7,2789.3,3727.8,2801C3711,2812.7,3689,2819.3,3668.2,2827.3C3647.3,2835.3,3627.7,2844.7,3608.5,2852.7C3589.3,2860.7,3570.7,2867.3,3548.3,2872C3526,2876.7,3500,2879.3,3478.5,2886.7C3457,2894,3440,2906,3424.5,2913.5C3409,2921,3395,2924,3379.8,2929C3364.7,2934,3348.3,2941,3344,2951.8C3339.7,2962.7,3347.3,2977.3,3357.8,2977.8C3368.3,2978.3,3381.7,2964.7,3398,2958.3C3414.3,2952,3433.7,2953,3451.5,2953.8C3469.3,2954.7,3485.7,2955.3,3503.8,2961.2C3522,2967,3542,2978,3558.2,2988.2C3574.3,2998.3,3586.7,3007.7,3597.2,3020.7C3607.7,3033.7,3616.3,3050.3,3618.2,3071.3C3620,3092.3,3615,3117.7,3615.5,3132.7C3616,3147.7,3622,3152.3,3634.3,3153.2C3646.7,3154,3665.3,3151,3681.7,3157.2C3698,3163.3,3712,3178.7,3720.5,3199.5C3729,3220.3,3732,3246.7,3736.8,3267.8C3741.7,3289,3748.3,3305,3755,3326.3C3761.7,3347.7,3768.3,3374.3,3779.3,3393C3790.3,3411.7,3805.7,3422.3,3807,3439C3808.3,3455.7,3795.7,3478.3,3780.2,3490C3764.7,3501.7,3746.3,3502.3,3728,3503.3C3709.7,3504.3,3691.3,3505.7,3679.5,3513.3C3667.7,3521,3662.3,3535,3649.7,3542.2C3637,3549.3,3617,3549.7,3595.3,3554.3C3573.7,3559,3550.3,3568,3528.8,3568.2C3507.3,3568.3,3487.7,3559.7,3474.2,3546.5C3460.7,3533.3,3453.3,3515.7,3442.8,3498.7C3432.3,3481.7,3418.7,3465.3,3411.3,3443.8C3404,3422.3,3403,3395.7,3402.3,3374.2C3401.7,3352.7,3401.3,3336.3,3389,3332.3C3376.7,3328.3,3352.3,3336.7,3340,3327.5C3327.7,3318.3,3327.3,3291.7,3313.7,3288.2C3300,3284.7,3273,3304.3,3250.5,3318.2C3228,3332,3210,3340,3193.2,3352.5C3176.3,3365,3160.7,3382,3143.8,3393.8C3127,3405.7,3109,3412.3,3099.5,3426C3090,3439.7,3089,3460.3,3077.7,3475.2C3066.3,3490,3044.7,3499,3023.5,3501.7C3002.3,3504.3,2981.7,3500.7,2961.8,3497.7C2942,3494.7,2923,3492.3,2902.7,3488.2C2882.3,3484,2860.7,3478,2846,3466.8C2831.3,3455.7,2823.7,3439.3,2809.8,3435.7C2796,3432,2776,3441,2754.3,3445.2C2732.7,3449.3,2709.3,3448.7,2685.8,3448.5C2662.3,3448.3,2638.7,3448.7,2618.7,3444.8C2598.7,3441,2582.3,3433,2567.2,3420.7C2552,3408.3,2538,3391.7,2534.8,3373.5C2531.7,3355.3,2539.3,3335.7,2540.8,3314.7C2542.3,3293.7,2537.7,3271.3,2538.3,3250.8C2539,3230.3,2545,3211.7,2547.2,3191.5C2549.3,3171.3,2547.7,3149.7,2543.7,3138.2C2539.7,3126.7,2533.3,3125.3,2519,3123.5C2504.7,3121.7,2482.3,3119.3,2463.2,3117.5C2444,3115.7,2428,3114.3,2408.5,3109C2389,3103.7,2366,3094.3,2344.5,3091.2C2323,3088,2303,3091,2287.2,3097C2271.3,3103,2259.7,3112,2243.2,3119.3C2226.7,3126.7,2205.3,3132.3,2187.3,3134.7C2169.3,3137,2154.7,3136,2137.2,3136.2C2119.7,3136.3,2099.3,3137.7,2078.8,3143C2058.3,3148.3,2037.7,3157.7,2017.8,3164.8C1998,3172,1979,3177,1960.2,3175.3C1941.3,3173.7,1922.7,3165.3,1903.5,3154.7C1884.3,3144,1864.7,3131,1843.7,3129.5C1822.7,3128,1800.3,3138,1780.7,3140C1761,3142,1744,3136,1734.7,3123.2C1725.3,3110.3,1723.7,3090.7,1727.3,3067C1731,3043.3,1740,3015.7,1743.7,2993.3C1747.3,2971,1745.7,2954,1751.5,2936.2C1757.3,2918.3,1770.7,2899.7,1784.7,2882C1798.7,2864.3,1813.3,2847.7,1823.5,2829.8C1833.7,2812,1839.3,2793,1848,2775.7C1856.7,2758.3,1868.3,2742.7,1870,2726.7C1871.7,2710.7,1863.3,2694.3,1851.7,2691.5C1840,2688.7,1825,2699.3,1807,2707.7C1789,2716,1768,2722,1749.3,2718.3C1730.7,2714.7,1714.3,2701.3,1701.2,2685.8C1688,2670.3,1678,2652.7,1670.5,2634.7C1663,2616.7,1658,2598.3,1654.5,2578.7C1651,2559,1649,2538,1651.7,2517.8C1654.3,2497.7,1661.7,2478.3,1662.8,2457.3C1664,2436.3,1659,2413.7,1649,2395C1639,2376.3,1624,2361.7,1608.5,2356.7C1593,2351.7,1577,2356.3,1566.7,2369.3C1556.3,2382.3,1551.7,2403.7,1545.7,2424.3C1539.7,2445,1532.3,2465,1524.3,2485.7C1516.3,2506.3,1507.7,2527.7,1495.2,2544.7C1482.7,2561.7,1466.3,2574.3,1456.5,2588.7C1446.7,2603,1443.3,2619,1444.5,2639.3C1445.7,2659.7,1451.3,2684.3,1451.7,2704.8C1452,2725.3,1447,2741.7,1436.7,2755C1426.3,2768.3,1410.7,2778.7,1395,2778.5C1379.3,2778.3,1363.7,2767.7,1347.2,2761.5C1330.7,2755.3,1313.3,2753.7,1293.7,2753C1274,2752.3,1252,2752.7,1233.5,2751.8C1215,2751,1200,2749,1183.5,2751.7C1167,2754.3,1149,2761.7,1132.3,2773.2C1115.7,2784.7,1100.3,2800.3,1083.8,2814.3C1067.3,2828.3,1049.7,2840.7,1035.7,2850.3C1021.7,2860,1011.3,2867,996,2867.7C980.7,2868.3,960.3,2862.7,940.2,2862.2C920,2861.7,900,2866.3,880.7,2867.5C861.3,2868.7,842.7,2866.3,829.8,2858C817,2849.7,810,2835.3,801.3,2828.7C792.7,2822,782.3,2823,779.7,2833.2C777,2843.3,782,2862.7,786.8,2882.2C791.7,2901.7,796.3,2921.3,808.7,2934.7C821,2948,841,2955,845,2969.5C849,2984,837,3006,825.5,3025.2C814,3044.3,803,3060.7,789.7,3070C776.3,3079.3,760.7,3081.7,741.5,3079.5C722.3,3077.3,699.7,3070.7,678.8,3064.2C658,3057.7,639,3051.3,620.7,3045.3C602.3,3039.3,584.7,3033.7,571.2,3024C557.7,3014.3,548.3,3000.7,548.8,2980C549.3,2959.3,559.7,2931.7,572,2915.3C584.3,2899,598.7,2894,606.8,2882.5C615,2871,617,2853,613.3,2836.5C609.7,2820,600.3,2805,583.3,2804C566.3,2803,541.7,2816,522,2822.3C502.3,2828.7,487.7,2828.3,471.8,2824.3C456,2820.3,439,2812.7,420.8,2802.7C402.7,2792.7,383.3,2780.3,365.2,2770C347,2759.7,330,2751.3,313.3,2740.5C296.7,2729.7,280.3,2716.3,271.5,2700.3C262.7,2684.3,261.3,2665.7,269.7,2651C278,2636.3,296,2625.7,313.3,2614.8C330.7,2604,347.3,2593,367,2586.7C386.7,2580.3,409.3,2578.7,430.2,2576.2C451,2573.7,470,2570.3,488.5,2563.3C507,2556.3,525,2545.7,541.7,2540.7C558.3,2535.7,573.7,2536.3,588.3,2530C603,2523.7,617,2510.3,631,2498.3C645,2486.3,659,2475.7,673,2467.5C687,2459.3,701,2453.7,717.2,2442.5C733.3,2431.3,751.7,2414.7,770.7,2399.5C789.7,2384.3,809.3,2370.7,825,2362.7C840.7,2354.7,852.3,2352.3,854,2341.8C855.7,2331.3,847.3,2312.7,845.7,2290.8C844,2269,849,2244,843.7,2223.3C838.3,2202.7,822.7,2186.3,817.2,2169C811.7,2151.7,816.3,2133.3,823.8,2118.3C831.3,2103.3,841.7,2091.7,837,2078C832.3,2064.3,812.7,2048.7,803.2,2031.3C793.7,2014,794.3,1995,796.3,1977.5C798.3,1960,801.7,1944,810.8,1930.8C820,1917.7,835,1907.3,845.3,1895.2C855.7,1883,861.3,1869,874.8,1853C888.3,1837,909.7,1819,930.3,1810.5C951,1802,971,1803,992.3,1804.7C1013.7,1806.3,1036.3,1808.7,1058.2,1812C1080,1815.3,1101,1819.7,1120.7,1827.2C1140.3,1834.7,1158.7,1845.3,1169.8,1845.5C1181,1845.7,1185,1835.3,1177.3,1827.2C1169.7,1819,1150.3,1813,1136.3,1801.8C1122.3,1790.7,1113.7,1774.3,1109.7,1753.7C1105.7,1733,1106.3,1708,1101.3,1688.5C1096.3,1669,1085.7,1655,1087.5,1641.8C1089.3,1628.7,1103.7,1616.3,1114.5,1605.2C1125.3,1594,1132.7,1584,1147.3,1568.8C1162,1553.7,1184,1533.3,1201.5,1532.8C1219,1532.3,1232,1551.7,1246.2,1557.5C1260.3,1563.3,1275.7,1555.7,1291.7,1549C1307.7,1542.3,1324.3,1536.7,1339.8,1536.5C1355.3,1536.3,1369.7,1541.7,1383.7,1552.7C1397.7,1563.7,1411.3,1580.3,1425.8,1592.8C1440.3,1605.3,1455.7,1613.7,1471.3,1627C1487,1640.3,1503,1658.7,1520.2,1673.7C1537.3,1688.7,1555.7,1700.3,1575.7,1700.5C1595.7,1700.7,1617.3,1689.3,1637.8,1683.2C1658.3,1677,1677.7,1676,1691,1663.2C1704.3,1650.3,1711.7,1625.7,1714.3,1604C1717,1582.3,1715,1563.7,1704.2,1553.2C1693.3,1542.7,1673.7,1540.3,1654.2,1537.2C1634.7,1534,1615.3,1530,1597.2,1530.3C1579,1530.7,1562,1535.3,1544.7,1532.8C1527.3,1530.3,1509.7,1520.7,1499.5,1505.3C1489.3,1490,1486.7,1469,1486.2,1447.3C1485.7,1425.7,1487.3,1403.3,1484.8,1380.7C1482.3,1358,1475.7,1335,1468.8,1314.7C1462,1294.3,1455,1276.7,1450,1256.8C1445,1237,1442,1215,1437,1193.3C1432,1171.7,1425,1150.3,1421.7,1128.7C1418.3,1107,1418.7,1085,1425.3,1068C1432,1051,1445,1039,1461.5,1029C1478,1019,1498,1011,1512.8,1020.3C1527.7,1029.7,1537.3,1056.3,1547.3,1077.8C1557.3,1099.3,1567.7,1115.7,1571.7,1136.8C1575.7,1158,1573.3,1184,1577.2,1203C1581,1222,1591,1234,1604.2,1246.7C1617.3,1259.3,1633.7,1272.7,1651.2,1276C1668.7,1279.3,1687.3,1272.7,1703.7,1268.5C1720,1264.3,1734,1262.7,1751.7,1262C1769.3,1261.3,1790.7,1261.7,1803.5,1273.3C1816.3,1285,1820.7,1308,1831,1325.3C1841.3,1342.7,1857.7,1354.3,1864.7,1347.3C1871.7,1340.3,1869.3,1314.7,1865.8,1292.8C1862.3,1271,1857.7,1253,1861.3,1237.3C1865,1221.7,1877,1208.3,1882.3,1192.2C1887.7,1176,1886.3,1157,1885.2,1137C1884,1117,1883,1096,1882,1074.3C1881,1052.7,1880,1030.3,1875.7,1010.7C1871.3,991,1863.7,974,1860.2,956C1856.7,938,1857.3,919,1862.5,901C1867.7,883,1877.3,866,1891.7,853.2C1906,840.3,1925,831.7,1942.2,830.5C1959.3,829.3,1974.7,835.7,1993.3,841.2C2012,846.7,2034,851.3,2050.7,845.2C2067.3,839,2078.7,822,2078.2,807.3C2077.7,792.7,2065.3,780.3,2066.5,766C2067.7,751.7,2082.3,735.3,2095.7,716C2109,696.7,2121,674.3,2132.5,656C2144,637.7,2155,623.3,2170.5,613.3C2186,603.3,2206,597.7,2223,596C2240,594.3,2254,596.7,2270.2,593.2C2286.3,589.7,2304.7,580.3,2320.7,567.2C2336.7,554,2350.3,537,2364.7,522.7C2379,508.3,2394,496.7,2411.7,495C2429.3,493.3,2449.7,501.7,2464.3,511.5C2479,521.3,2488,532.7,2493.3,550.8C2498.7,569,2500.3,594,2496.5,614.5C2492.7,635,2483.3,651,2474.3,663.7C2465.3,676.3,2456.7,685.7,2445.7,698.3C2434.7,711,2421.3,727,2407.8,744.5C2394.3,762,2380.7,781,2366,793.2C2351.3,805.3,2335.7,810.7,2320,820.5C2304.3,830.3,2288.7,844.7,2276.3,857.7C2264,870.7,2255,882.3,2235.8,889.7C2216.7,897,2187.3,900,2173.3,912.5C2159.3,925,2160.7,947,2157.5,965.3C2154.3,983.7,2146.7,998.3,2142.5,1018C2138.3,1037.7,2137.7,1062.3,2135.7,1082.7C2133.7,1103,2130.3,1119,2127,1134.8C2123.7,1150.7,2120.3,1166.3,2112.5,1183.8C2104.7,1201.3,2092.3,1220.7,2084,1239.7C2075.7,1258.7,2071.3,1277.3,2066.7,1298C2062,1318.7,2057,1341.3,2050,1362C2043,1382.7,2034,1401.3,2029.3,1422.2C2024.7,1443,2024.3,1466,2021.3,1486.3C2018.3,1506.7,2012.7,1524.3,2011,1543.8C2009.3,1563.3,2011.7,1584.7,2021.7,1598C2031.7,1611.3,2049.3,1616.7,2057.8,1607.5C2066.3,1598.3,2065.7,1574.7,2071.5,1558.3C2077.3,1542,2089.7,1533,2106.5,1530C2123.3,1527,2144.7,1530,2159,1540.8C2173.3,1551.7,2180.7,1570.3,2189.5,1583.5C2198.3,1596.7,2208.7,1604.3,2224.8,1601.8C2241,1599.3,2263,1586.7,2272,1571.3C2281,1556,2277,1538,2265.3,1519.8C2253.7,1501.7,2234.3,1483.3,2228.8,1465.5C2223.3,1447.7,2231.7,1430.3,2241.3,1412.3C2251,1394.3,2262,1375.7,2270.3,1356.2C2278.7,1336.7,2284.3,1316.3,2285.8,1296C2287.3,1275.7,2284.7,1255.3,2278.2,1232.7C2271.7,1210,2261.3,1185,2257.5,1163.8C2253.7,1142.7,2256.3,1125.3,2261.7,1106.8C2267,1088.3,2275,1068.7,2289.7,1052C2304.3,1035.3,2325.7,1021.7,2344.2,1004.7C2362.7,987.7,2378.3,967.3,2392.7,954.3C2407,941.3,2420,935.7,2432.8,941.3C2445.7,947,2458.3,964,2465.8,983.3C2473.3,1002.7,2475.7,1024.3,2480.2,1046.3C2484.7,1068.3,2491.3,1090.7,2500.5,1105.7C2509.7,1120.7,2521.3,1128.3,2535,1140C2548.7,1151.7,2564.3,1167.3,2579,1176.7C2593.7,1186,2607.3,1189,2616.3,1181.7C2625.3,1174.3,2629.7,1156.7,2639.3,1137.7C2649,1118.7,2664,1098.3,2680.3,1088.2C2696.7,1078,2714.3,1078,2732.3,1082.8C2750.3,1087.7,2768.7,1097.3,2785.3,1107.7C2802,1118,2817,1129,2823,1145.3C2829,1161.7,2826,1183.3,2837,1194C2848,1204.7,2873,1204.3,2895.5,1197C2918,1189.7,2938,1175.3,2953,1161.2C2968,1147,2978,1133,2987.5,1118.7C2997,1104.3,3006,1089.7,3019.2,1073.3C3032.3,1057,3049.7,1039,3066.2,1023.2C3082.7,1007.3,3098.3,993.7,3114.7,989C3131,984.3,3148,988.7,3161.8,985.2C3175.7,981.7,3186.3,970.3,3198.3,958.8C3210.3,947.3,3223.7,935.7,3239.7,933.2C3255.7,930.7,3274.3,937.3,3290.3,947.3C3306.3,957.3,3319.7,970.7,3332.7,974.3C3345.7,978,3358.3,972,3375,967.8C3391.7,963.7,3412.3,961.3,3429.2,967.5C3446,973.7,3459,988.3,3480.7,1000.2C3502.3,1012,3532.7,1021,3555.2,1027.3C3577.7,1033.7,3592.3,1037.3,3608,1034.5C3623.7,1031.7,3640.3,1022.3,3662,1017.7C3683.7,1013,3710.3,1013,3730.8,1021.3C3751.3,1029.7,3765.7,1046.3,3783.3,1051.3C3801,1056.3,3822,1049.7,3839.8,1053C3857.7,1056.3,3872.3,1069.7,3887.5,1081.8C3902.7,1094,3918.3,1105,3931.8,1100.8C3945.3,1096.7,3956.7,1077.3,3971.8,1064.7C3987,1052,4006,1046,4026.7,1045.2C4047.3,1044.3,4069.7,1048.7,4079.7,1061C4089.7,1073.3,4087.3,1093.7,4092.7,1103.3C4098,1113,4111,1112,4124.2,1108.2C4137.3,1104.3,4150.7,1097.7,4168.8,1097.8C4187,1098,4210,1105,4226.2,1111.7C4242.3,1118.3,4251.7,1124.7,4266.8,1130.2C4282,1135.7,4303,1140.3,4321.7,1145.7C4340.3,1151,4356.7,1157,4374,1154.8C4391.3,1152.7,4409.7,1142.3,4427.7,1143.5C4445.7,1144.7,4463.3,1157.3,4476.7,1157C4490,1156.7,4499,1143.3,4511.8,1127.8C4524.7,1112.3,4541.3,1094.7,4557.8,1082.2C4574.3,1069.7,4590.7,1062.3,4606.8,1059.7C4623,1057,4639,1059,4656.3,1062.5C4673.7,1066,4692.3,1071,4708.3,1082.5C4724.3,1094,4737.7,1112,4751.3,1126.5C4765,1141,4779,1152,4798.7,1158.2C4818.3,1164.3,4843.7,1165.7,4867,1163.8C4890.3,1162,4911.7,1157,4931.7,1154.7C4951.7,1152.3,4970.3,1152.7,4989.7,1153.8C5009,1155,5029,1157,5046.3,1152.7C5063.7,1148.3,5078.3,1137.7,5095.7,1132.8C5113,1128,5133,1129,5147,1125.3C5161,1121.7,5169,1113.3,5186.5,1109.8C5204,1106.3,5231,1107.7,5240.7,1098.7C5250.3,1089.7,5242.7,1070.3,5234.2,1049.7C5225.7,1029,5216.3,1007,5218,985.5C5219.7,964,5232.3,943,5248.8,929C5265.3,915,5285.7,908,5305.2,901.5C5324.7,895,5343.3,889,5352.7,874.8C5362,860.7,5362,838.3,5365.2,816.2C5368.3,794,5374.7,772,5387.7,757.8C5400.7,743.7,5420.3,737.3,5432.5,723.8C5444.7,710.3,5449.3,689.7,5450,671.7C5450.7,653.7,5447.3,638.3,5441,626.3C5434.7,614.3,5425.3,605.7,5413.3,591.3C5401.3,577,5386.7,557,5368.7,540.3C5350.7,523.7,5329.3,510.3,5319.5,493.8C5309.7,477.3,5311.3,457.7,5316,438.7C5320.7,419.7,5328.3,401.3,5341,388.5C5353.7,375.7,5371.3,368.3,5389,363.3C5406.7,358.3,5424.3,355.7,5443.3,352C5462.3,348.3,5482.7,343.7,5502,336.3C5521.3,329,5539.7,319,5556.7,317.8C5573.7,316.7,5589.3,324.3,5602,339.8C5614.7,355.3,5624.3,378.7,5628.2,400.7C5632,422.7,5630,443.3,5634,453.7C5638,464,5648,464,5660.7,458.8C5673.3,453.7,5688.7,443.3,5698.3,425.8C5708,408.3,5712,383.7,5721.8,364.3C5731.7,345,5747.3,331,5764.7,325C5782,319,5801,321,5814.3,325.7C5827.7,330.3,5835.3,337.7,5843.2,349.7C5851,361.7,5859,378.3,5867.8,397.5C5876.7,416.7,5886.3,438.3,5891.5,436.7C5896.7,435,5897.3,410,5905.3,390.2C5913.3,370.3,5928.7,355.7,5932.2,338.5C5935.7,321.3,5927.3,301.7,5924,278.8C5920.7,256,5922.3,230,5930.7,209.8C5939,189.7,5954,175.3,5960.3,162.2C5966.7,149,5964.3,137,5970.2,123.5C5976,110,5990,95,6000.7,83C6011.3,71,6018.7,62,6033.7,57.2C6048.7,52.3,6071.3,51.7,6089.5,59.7M5964.3,1123.5C5952,1142.3,5940,1159.7,5924.3,1172C5908.7,1184.3,5889.3,1191.7,5872.7,1194.3C5856,1197,5842,1195,5824.3,1201C5806.7,1207,5785.3,1221,5768,1232.8C5750.7,1244.7,5737.3,1254.3,5739.7,1263.5C5742,1272.7,5760,1281.3,5776.2,1291.3C5792.3,1301.3,5806.7,1312.7,5814.8,1327.2C5823,1341.7,5825,1359.3,5832.7,1363.3C5840.3,1367.3,5853.7,1357.7,5864.3,1342.3C5875,1327,5883,1306,5892.5,1287.8C5902,1269.7,5913,1254.3,5927.8,1240C5942.7,1225.7,5961.3,1212.3,5981.2,1206.2C6001,1200,6022,1201,6038.3,1196.7C6054.7,1192.3,6066.3,1182.7,6081.7,1172.5C6097,1162.3,6116,1151.7,6125.5,1137.2C6135,1122.7,6135,1104.3,6124,1094.8C6113,1085.3,6091,1084.7,6069.2,1080.5C6047.3,1076.3,6025.7,1068.7,6014.5,1065.3C6003.3,1062,6002.7,1063,5996,1073.7C5989.3,1084.3,5976.7,1104.7,5964.3,1123.5M1718.7,1450.2C1714.7,1472,1717.3,1498,1725.3,1506.8C1733.3,1515.7,1746.7,1507.3,1755.5,1491.8C1764.3,1476.3,1768.7,1453.7,1766,1436C1763.3,1418.3,1753.7,1405.7,1743.5,1408.2C1733.3,1410.7,1722.7,1428.3,1718.7,1450.2M4384.7,1423.2C4392.7,1431.7,4382.3,1451.3,4368.7,1465.8C4355,1480.3,4338,1489.7,4320.8,1485.3C4303.7,1481,4286.3,1463,4286.8,1449.8C4287.3,1436.7,4305.7,1428.3,4328,1422.8C4350.3,1417.3,4376.7,1414.7,4384.7,1423.2M4506.2,1709.7C4527,1708.3,4555,1701.7,4578.7,1702.7C4602.3,1703.7,4621.7,1712.3,4627.8,1726.7C4634,1741,4627,1761,4613,1765.8C4599,1770.7,4578,1760.3,4554.8,1753.7C4531.7,1747,4506.3,1744,4483.8,1747.8C4461.3,1751.7,4441.7,1762.3,4424.3,1763.8C4407,1765.3,4392,1757.7,4392.3,1750.5C4392.7,1743.3,4408.3,1736.7,4421.8,1728.8C4435.3,1721,4446.7,1712,4459.2,1709.5C4471.7,1707,4485.3,1711,4506.2,1709.7M3611.8,1827.7C3611,1845.7,3614,1866.3,3618.7,1886.3C3623.3,1906.3,3629.7,1925.7,3638,1937.7C3646.3,1949.7,3656.7,1954.3,3672.7,1961.8C3688.7,1969.3,3710.3,1979.7,3729.2,1984.3C3748,1989,3764,1988,3781,1990.2C3798,1992.3,3816,1997.7,3838.8,2002.2C3861.7,2006.7,3889.3,2010.3,3910,2015.7C3930.7,2021,3944.3,2028,3961.3,2024.2C3978.3,2020.3,3998.7,2005.7,4012.8,1989C4027,1972.3,4035,1953.7,4031,1933.8C4027,1914,4011,1893,3997.2,1874.2C3983.3,1855.3,3971.7,1838.7,3958.3,1822.7C3945,1806.7,3930,1791.3,3909.7,1778.3C3889.3,1765.3,3863.7,1754.7,3841.8,1750.8C3820,1747,3802,1750,3783.8,1751C3765.7,1752,3747.3,1751,3723.5,1750.8C3699.7,1750.7,3670.3,1751.3,3652.5,1756.2C3634.7,1761,3628.3,1770,3622.8,1782.2C3617.3,1794.3,3612.7,1809.7,3611.8,1827.7M4372.7,2043.3C4381.7,2056.7,4383.3,2075.3,4385.8,2094.8C4388.3,2114.3,4391.7,2134.7,4390.2,2156C4388.7,2177.3,4382.3,2199.7,4378.3,2199.3C4374.3,2199,4372.7,2176,4370.2,2153.7C4367.7,2131.3,4364.3,2109.7,4357.7,2086.5C4351,2063.3,4341,2038.7,4336,2026.3C4331,2014,4331,2014,4339.2,2018C4347.3,2022,4363.7,2030,4372.7,2043.3M922,2084.8C927,2096.7,941,2109.3,954,2105.8C967,2102.3,979,2082.7,974,2070.8C969,2059,947,2055,934,2058.5C921,2062,917,2073,922,2084.8M4697.3,2097.5C4714.3,2109,4740.7,2110,4761.2,2106.3C4781.7,2102.7,4796.3,2094.3,4812.7,2090.3C4829,2086.3,4847,2086.7,4861.8,2094.2C4876.7,2101.7,4888.3,2116.3,4905.8,2125.7C4923.3,2135,4946.7,2139,4959.2,2154.7C4971.7,2170.3,4973.3,2197.7,4960.3,2210.3C4947.3,2223,4919.7,2221,4897.8,2217.3C4876,2213.7,4860,2208.3,4842.8,2206.8C4825.7,2205.3,4807.3,2207.7,4789.5,2204.8C4771.7,2202,4754.3,2194,4736.8,2183.3C4719.3,2172.7,4701.7,2159.3,4689.5,2142.2C4677.3,2125,4670.7,2104,4667.5,2086.7C4664.3,2069.3,4664.7,2055.7,4668.7,2059.8C4672.7,2064,4680.3,2086,4697.3,2097.5M5373.3,2122.8C5376,2134.7,5362,2149.3,5357.5,2165.7C5353,2182,5358,2200,5360.2,2212.7C5362.3,2225.3,5361.7,2232.7,5361.7,2245.7C5361.7,2258.7,5362.3,2277.3,5353.2,2281.8C5344,2286.3,5325,2276.7,5315.8,2270.3C5306.7,2264,5307.3,2261,5310.8,2247.8C5314.3,2234.7,5320.7,2211.3,5321,2192C5321.3,2172.7,5315.7,2157.3,5316.5,2141.5C5317.3,2125.7,5324.7,2109.3,5338,2105.7C5351.3,2102,5370.7,2111,5373.3,2122.8M5825.5,2258.7C5824.7,2274,5833.3,2285,5842.8,2280.5C5852.3,2276,5862.7,2256,5864.8,2237.7C5867,2219.3,5861,2202.7,5856.7,2197.3C5852.3,2192,5849.7,2198,5843.2,2210.8C5836.7,2223.7,5826.3,2243.3,5825.5,2258.7M2344.5,2749.7C2347,2766.7,2366,2774.3,2381.7,2771C2397.3,2767.7,2409.7,2753.3,2414.7,2736.8C2419.7,2720.3,2417.3,2701.7,2408.7,2691.8C2400,2682,2385,2681,2370.5,2693.7C2356,2706.3,2342,2732.7,2344.5,2749.7M4324,2731.8C4330.3,2743.3,4326.7,2755.7,4316.2,2759.3C4305.7,2763,4288.3,2758,4282,2746.5C4275.7,2735,4280.3,2717,4290.8,2713.3C4301.3,2709.7,4317.7,2720.3,4324,2731.8M5227.7,2836.7C5245.3,2844.7,5262.7,2852.3,5275.3,2863.7C5288,2875,5296,2890,5290.5,2902.8C5285,2915.7,5266,2926.3,5245,2932.8C5224,2939.3,5201,2941.7,5180.5,2940.3C5160,2939,5142,2934,5122.3,2938.8C5102.7,2943.7,5081.3,2958.3,5067.8,2954.8C5054.3,2951.3,5048.7,2929.7,5056,2910.3C5063.3,2891,5083.7,2874,5098.2,2860C5112.7,2846,5121.3,2835,5133,2827.5C5144.7,2820,5159.3,2816,5175.7,2818.2C5192,2820.3,5210,2828.7,5227.7,2836.7M2932.2,3141.8C2951.3,3147.3,2966.7,3148.7,2971.7,3156.7C2976.7,3164.7,2971.3,3179.3,2960.7,3190.7C2950,3202,2934,3210,2914.8,3210.2C2895.7,3210.3,2873.3,3202.7,2860.7,3191.2C2848,3179.7,2845,3164.3,2847.7,3151.3C2850.3,3138.3,2858.7,3127.7,2874.3,3127.2C2890,3126.7,2913,3136.3,2932.2,3141.8M6660.5,3135.8C6678,3134.7,6689,3126.3,6684.7,3122C6680.3,3117.7,6660.7,3117.3,6643.2,3118.5C6625.7,3119.7,6610.3,3122.3,6614.7,3126.7C6619,3131,6643,3137,6660.5,3135.8M6883.3,3166C6902.7,3177.7,6924.3,3185.3,6932.5,3180.7C6940.7,3176,6935.3,3159,6925.2,3149.5C6915,3140,6900,3138,6883.3,3134.8C6866.7,3131.7,6848.3,3127.3,6839.2,3125.2C6830,3123,6830,3123,6838.5,3130.8C6847,3138.7,6864,3154.3,6883.3,3166M5643.5,3192.8C5644.7,3208,5647.3,3225,5655.5,3237.8C5663.7,3250.7,5677.3,3259.3,5688.2,3256.5C5699,3253.7,5707,3239.3,5703.7,3226C5700.3,3212.7,5685.7,3200.3,5673.7,3188C5661.7,3175.7,5652.3,3163.3,5647.5,3163.8C5642.7,3164.3,5642.3,3177.7,5643.5,3192.8M2228.8,3293.5C2244.7,3304,2255.3,3316,2262.3,3333.8C2269.3,3351.7,2272.7,3375.3,2264,3393.8C2255.3,3412.3,2234.7,3425.7,2211.5,3430.7C2188.3,3435.7,2162.7,3432.3,2141.8,3426.7C2121,3421,2105,3413,2097.8,3399.2C2090.7,3385.3,2092.3,3365.7,2100.5,3346.7C2108.7,3327.7,2123.3,3309.3,2136.2,3295.8C2149,3282.3,2160,3273.7,2176,3273.8C2192,3274,2213,3283,2228.8,3293.5M3093,3550.2C3117.3,3553.3,3146.7,3563.7,3163.2,3581.8C3179.7,3600,3183.3,3626,3175.5,3644.3C3167.7,3662.7,3148.3,3673.3,3145.3,3683.3C3142.3,3693.3,3155.7,3702.7,3159,3716.5C3162.3,3730.3,3155.7,3748.7,3145.8,3764.7C3136,3780.7,3123,3794.3,3105,3802.3C3087,3810.3,3064,3812.7,3043,3815C3022,3817.3,3003,3819.7,2982.5,3814.5C2962,3809.3,2940,3796.7,2923.5,3786.2C2907,3775.7,2896,3767.3,2884,3755C2872,3742.7,2859,3726.3,2859.5,3708.3C2860,3690.3,2874,3670.7,2889.5,3651.8C2905,3633,2922,3615,2943,3600.5C2964,3586,2989,3575,3004.2,3568C3019.3,3561,3024.7,3558,3037,3554.5C3049.3,3551,3068.7,3547,3093,3550.2M5515.3,4079C5532.7,4079.7,5549.3,4079.3,5558.2,4085.8C5567,4092.3,5568,4105.7,5559.3,4114.5C5550.7,4123.3,5532.3,4127.7,5513.3,4125C5494.3,4122.3,5474.7,4112.7,5466,4103.2C5457.3,4093.7,5459.7,4084.3,5469.8,4080.5C5480,4076.7,5498,4078.3,5515.3,4079" fill="#ecf2f9" fill-opacity="0.13"/></g></g></g>
    </svg>